<svg version="1.0" xmlns="http://www.w3.org/2000/svg" viewBox="0 0 411.689 239.616">
  <path d="M48.282 183.671c4.251.545 8.6 1.271 11.133 5.342 2.173 3.078 2.083 7.062 2.263 11.044H48.282c0-1.536 0-2.986-.725-4.163-2.896-2.174-6.971-1.176-10.684-1.449-7.454.044-14.484-.179-21.365.544-.813.271-1.809 1.269-2.079 2.082-.274 1.268-.274 2.808.813 3.711l1.448 1.088c11.768.996 23.176 1.179 35.033 2.084 3.981.54 7.965 2.079 10.231 5.974 3.348 5.885 2.711 15.119-1.54 20.458-3.167 3.711-7.602 4.345-12.222 4.436-11.226.544-23.174.727-34.31-.179-3.891-.452-7.513-1.631-10.049-4.981C.57 226.042.226 221.399.139 216.87l13.468.118c-.089 2.265-.089 4.62 2.082 5.793 10.413.729 21.906.907 32.228-.179.994-.363 1.722-1.448 1.99-2.444.275-1.811-.087-3.529-1.626-4.527l-2.265-.542-33.676-1.993c-4.618-.724-9.869-3.077-11.408-8.058-1.357-4.886-1.537-10.863 1.54-15.027 5.703-7.874 15.844-5.885 24.536-6.698l21.274.358zM81.564 219.042c.546 1.177 1.54 2.534 2.805 3.17 9.059.905 19.827 1.355 28.705-.454 1.446-.814 2.35-2.353 2.256-4.073v-34.039l13.803-.009-.181 39.108c-.727 3.892-2.1 7.866-6.736 10.964-2.903 1.81-6.521 1.899-10.053 1.993l-31.684-.184c-4.345-.362-8.69-3.892-10.772-7.968l-1.356-4.073-.184-39.832h13.216l.181 35.397zM349.924 219.137c.546 1.175 1.446 2.532 2.722 3.166 8.687 1.088 18.646.906 27.426.183 1.269-.271 2.354-1.357 3.167-2.443l.365-1.901v-34.4l13.598.043v39.386c-.716 3.803-2.697 7.809-6.5 9.891-2.896 1.81-6.649 2.27-10.182 2.362l-31.684-.183c-4.345-.361-8.777-3.52-10.862-7.596-.904-2.17-1.45-4.616-1.536-7.24v-36.663l13.546.043-.06 35.352zM324.768 210.784l1.87-1.336c5.166-6.059 3.733-13.939 1.109-19.553-3.782-5.931-8.593-5.842-10.821-6.111l-46.575-.043-.114 51.459h13.633l.052-18.239.007-.094h27.43c5.263.574 5.568 3.985 5.652 8.617 0 3.299.052 6.952.052 9.759h13.49c.003-9.133 1.713-19.846-5.785-24.459zm-10.783-6.238l-.816.016-29.474.074.052-9.581 29.609.183c1.171.451 2.346 1.265 2.802 2.441.268 1.904 1.213 5.265-2.173 6.867zM239.053 183.784l-15.507-.043-28.152 51.682h15.573c1.626-2.986 2.961-5.75 4.98-9.052h29.96c1.961 3.214 3.212 5.707 4.905 8.827l16.125.089-27.884-51.503zm-17.589 31.724c2.813-6.25 6.435-12.043 9.333-18.199 3.528 5.704 6.153 12.041 9.504 18.015l-18.837.184zM190.743 207.634c4.891-3.077 4.71-9.688 3.716-14.846-1.088-4.708-6.156-8.419-10.592-8.961l-47.628-.077v51.635l.459.011h41.917c3.893 0 7.695-.363 10.953-1.814 3.89-1.898 5.787-5.882 6.521-9.685.724-6.065.265-13.185-5.346-16.263zm-41.257-12.673l29.241.179c.994.363 2.263 1.179 2.628 2.267.271 1.447.271 3.257-.907 4.253-.904 1.086-2.177 1.267-3.348 1.54h-27.614v-8.239zm31.688 27.25c-2.177 1.629-5.166 1.538-8.058 1.446-7.786-.091-15.663.183-23.453-.181v-9.506l28.883.181c1.269.454 2.628 1.087 3.351 2.444.632 1.722.632 4.167-.723 5.616zM407.212 230.483c2.496 0 4.478 2.026 4.478 4.557 0 2.572-1.981 4.576-4.498 4.576-2.488 0-4.516-2.004-4.516-4.576 0-2.53 2.027-4.557 4.516-4.557h.02zm-.021.709c-2.002 0-3.643 1.721-3.643 3.848 0 2.166 1.641 3.869 3.663 3.869 2.027.019 3.646-1.703 3.646-3.848 0-2.148-1.619-3.869-3.646-3.869h-.02zm-.851 6.498h-.803v-5.082c.42-.059.823-.121 1.432-.121.771 0 1.279.163 1.582.386.303.221.466.568.466 1.055 0 .666-.445 1.072-.991 1.234v.038c.445.083.748.488.849 1.237.121.789.243 1.093.323 1.253h-.852c-.122-.16-.24-.625-.345-1.293-.118-.65-.441-.892-1.088-.892h-.573v2.185zm0-2.814h.588c.667 0 1.237-.242 1.237-.871 0-.443-.323-.89-1.237-.89-.261 0-.441.02-.588.042v1.719z"/>
  <path fill="#004489" d="M333.041 78.306c0 37.757-59.238 68.367-132.322 68.367-73.08 0-132.321-30.61-132.321-68.367 0-37.755 59.242-68.363 132.321-68.363 73.084 0 132.322 30.608 132.322 68.363z"/>
  <path fill="#004489" d="M270.212 58.453c.452 16.295-41.417 55.675-103.203 55.675-61.79 0-101.948-11.773-101.948-45.988 0-34.216 50.134-59.567 111.883-61.953 76.524-2.957 92.308 17.83 93.268 52.266z"/>
  <path fill="#004489" d="M269.481 58.4c.449 16.221-41.191 55.367-102.629 55.367-61.441 0-101.382-11.723-101.382-45.744C65.47 34 115.321 8.79 176.722 6.419c76.078-2.936 91.806 17.74 92.759 51.981z"/>
  <path fill="#004589" d="M268.752 58.347c.446 16.146-40.967 55.059-102.056 55.059-61.092 0-100.817-11.672-100.817-45.5 0-33.83 49.568-58.899 110.62-61.253 75.632-2.918 91.306 17.647 92.253 51.694z"/>
  <path fill="#00468A" d="M268.021 58.294c.443 16.072-40.741 54.751-101.481 54.751-60.744 0-100.251-11.621-100.251-45.256 0-33.637 49.285-58.565 109.988-60.904 75.186-2.898 90.804 17.557 91.744 51.409z"/>
  <path fill="#00468A" d="M267.292 58.241c.439 15.998-40.517 54.443-100.908 54.443-60.395 0-99.686-11.57-99.686-45.012 0-33.444 49.002-58.231 109.357-60.554 74.74-2.879 90.302 17.466 91.237 51.123z"/>
  <path fill="#00468A" d="M266.562 58.188c.438 15.923-40.291 54.135-100.334 54.135-60.046 0-99.12-11.519-99.12-44.768 0-33.25 48.719-57.897 108.726-60.205 74.293-2.859 89.8 17.376 90.728 50.838z"/>
  <path fill="#00478B" d="M265.832 58.135c.434 15.849-40.066 53.827-99.76 53.827-59.698 0-98.555-11.468-98.555-44.524 0-33.058 48.437-57.564 108.094-59.855 73.847-2.839 89.299 17.284 90.221 50.552z"/>
  <path fill="#00488C" d="M265.102 58.083c.432 15.774-39.841 53.519-99.186 53.519-59.35 0-97.989-11.417-97.989-44.28 0-32.865 48.153-57.23 107.463-59.505 73.4-2.821 88.797 17.192 89.712 50.266z"/>
  <path fill="#00488C" d="M264.372 58.029c.428 15.7-39.616 53.21-98.612 53.21-59 0-97.424-11.367-97.424-44.036 0-32.671 47.871-56.896 106.832-59.156 72.954-2.799 88.295 17.103 89.204 49.982z"/>
  <path fill="#00498C" d="M263.642 57.977c.425 15.625-39.391 52.902-98.038 52.902-58.652 0-96.858-11.316-96.858-43.792 0-32.478 47.587-56.562 106.201-58.806 72.507-2.781 87.792 17.011 88.695 49.696z"/>
  <path fill="#00498C" d="M262.912 57.924c.422 15.551-39.166 52.594-97.465 52.594-58.303 0-96.292-11.265-96.292-43.548 0-32.285 47.305-56.229 105.569-58.457 72.061-2.761 87.292 16.921 88.188 49.411z"/>
  <path fill="#00498D" d="M262.182 57.871c.419 15.477-38.939 52.286-96.891 52.286-57.954 0-95.727-11.214-95.727-43.304 0-32.092 47.021-55.895 104.938-58.107 71.615-2.742 86.79 16.83 87.68 49.125z"/>
  <path fill="#004A8D" d="M261.451 57.818c.417 15.402-38.714 51.978-96.316 51.978-57.605 0-95.161-11.163-95.161-43.061 0-31.899 46.739-55.561 104.307-57.757 71.168-2.721 86.287 16.739 87.17 48.84z"/>
  <path fill="#004A8D" d="M260.722 57.765c.413 15.328-38.489 51.67-95.743 51.67-57.257 0-94.595-11.113-94.595-42.817 0-31.706 46.456-55.227 103.675-57.407 70.721-2.702 85.786 16.648 86.663 48.554z"/>
  <path fill="#004B8E" d="M259.991 57.712c.41 15.253-38.264 51.362-95.169 51.362-56.908 0-94.03-11.062-94.03-42.573 0-31.513 46.173-54.893 103.043-57.058C244.112 6.761 259.121 26 259.991 57.712z"/>
  <path fill="#004B8E" d="M259.262 57.659c.407 15.179-38.039 51.054-94.595 51.054-56.56 0-93.465-11.011-93.465-42.329 0-31.319 45.89-54.559 102.412-56.708 69.83-2.663 84.782 16.466 85.648 47.983z"/>
  <path fill="#004C8E" d="M258.531 57.606c.404 15.105-37.813 50.746-94.021 50.746-56.211 0-92.899-10.96-92.899-42.085 0-31.126 45.607-54.225 101.781-56.358 69.384-2.644 84.281 16.375 85.139 47.697z"/>
  <path fill="#004D8F" d="M257.802 57.553c.401 15.03-37.589 50.438-93.447 50.438-55.862 0-92.333-10.909-92.333-41.841 0-30.933 45.324-53.891 101.149-56.009 68.936-2.623 83.778 16.284 84.631 47.412z"/>
  <path fill="#004D90" d="M257.071 57.5c.398 14.956-37.363 50.129-92.873 50.129-55.514 0-91.768-10.858-91.768-41.597 0-30.74 45.041-53.558 100.518-55.66 68.491-2.602 83.278 16.195 84.123 47.128z"/>
  <path fill="#004E90" d="M256.342 57.447c.395 14.881-37.139 49.822-92.3 49.822-55.165 0-91.202-10.808-91.202-41.353 0-30.547 44.758-53.224 99.887-55.31 68.044-2.584 82.775 16.103 83.615 46.841z"/>
  <path fill="#004E90" d="M255.611 57.395c.393 14.807-36.913 49.514-91.726 49.514-54.816 0-90.636-10.757-90.636-41.109 0-30.354 44.475-52.89 99.255-54.96 67.6-2.566 82.274 16.011 83.107 46.555z"/>
  <path fill="#014F90" d="M254.882 57.342c.389 14.732-36.688 49.205-91.152 49.205-54.467 0-90.071-10.706-90.071-40.865 0-30.161 44.192-52.556 98.624-54.611 67.152-2.545 81.772 15.921 82.599 46.271z"/>
  <path fill="#044F91" d="M254.151 57.289c.387 14.658-36.463 48.897-90.578 48.897-54.119 0-89.505-10.655-89.505-40.621 0-29.968 43.909-52.222 97.992-54.261 66.707-2.526 81.271 15.83 82.091 45.985z"/>
  <path fill="#085091" d="M253.422 57.236c.383 14.583-36.238 48.589-90.005 48.589-53.77 0-88.939-10.604-88.939-40.377 0-29.774 43.626-51.888 97.361-53.911 66.26-2.507 80.768 15.738 81.583 45.699z"/>
  <path fill="#0B5092" d="M252.691 57.183c.38 14.509-36.013 48.281-89.43 48.281-53.422 0-88.375-10.554-88.375-40.134 0-29.582 43.343-51.554 96.73-53.561 65.815-2.486 80.268 15.648 81.075 45.414z"/>
  <path fill="#0E5192" d="M251.962 57.13c.377 14.435-35.788 47.973-88.856 47.973-53.073 0-87.809-10.502-87.809-39.889 0-29.389 43.061-51.221 96.098-53.212 65.367-2.467 79.765 15.557 80.567 45.128z"/>
  <path fill="#145292" d="M251.231 57.077c.374 14.36-35.563 47.665-88.282 47.665-52.724 0-87.243-10.452-87.243-39.646 0-29.195 42.777-50.887 95.467-52.862 64.921-2.447 79.264 15.467 80.058 44.843z"/>
  <path fill="#165293" d="M250.501 57.024c.372 14.286-35.337 47.357-87.708 47.357-52.375 0-86.678-10.401-86.678-39.402 0-29.002 42.495-50.553 94.836-52.512 64.475-2.428 78.762 15.375 79.55 44.557z"/>
  <path fill="#185394" d="M249.771 56.971c.368 14.212-35.112 47.049-87.135 47.049-52.027 0-86.112-10.35-86.112-39.158 0-28.809 42.211-50.219 94.205-52.163 64.029-2.407 78.26 15.285 79.042 44.272z"/>
  <path fill="#1B5394" d="M249.041 56.918c.365 14.137-34.886 46.741-86.561 46.741-51.678 0-85.546-10.299-85.546-38.914 0-28.616 41.929-49.885 93.573-51.813 63.582-2.389 77.759 15.193 78.534 43.986z"/>
  <path fill="#1C5494" d="M248.312 56.866c.362 14.063-34.661 46.433-85.987 46.433-51.329 0-84.98-10.249-84.98-38.67 0-28.423 41.646-49.551 92.941-51.463 63.135-2.37 77.256 15.101 78.026 43.7z"/>
  <path fill="#1E5495" d="M247.581 56.813c.359 13.988-34.436 46.125-85.413 46.125-50.98 0-84.415-10.197-84.415-38.426 0-28.229 41.363-49.217 92.311-51.114 62.689-2.35 76.754 15.011 77.517 43.415z"/>
  <path fill="#1F5595" d="M246.852 56.76c.356 13.914-34.211 45.816-84.839 45.816-50.632 0-83.85-10.146-83.85-38.182s41.08-48.883 91.678-50.764c62.243-2.33 76.254 14.92 77.011 43.13z"/>
  <path fill="#225595" d="M246.121 56.707c.354 13.839-33.985 45.508-84.265 45.508-50.283 0-83.284-10.096-83.284-37.938 0-27.844 40.797-48.55 91.047-50.415 61.797-2.31 75.752 14.83 76.502 42.845z"/>
  <path fill="#235696" d="M245.392 56.654c.35 13.765-33.761 45.2-83.692 45.2-49.935 0-82.718-10.044-82.718-37.694 0-27.65 40.514-48.216 90.416-50.065 61.35-2.291 75.249 14.739 75.994 42.559z"/>
  <path fill="#255796" d="M244.661 56.601c.348 13.69-33.535 44.892-83.118 44.892-49.586 0-82.153-9.994-82.153-37.45 0-27.457 40.231-47.882 89.785-49.715 60.905-2.271 74.749 14.648 75.486 42.273z"/>
  <path fill="#285897" d="M243.932 56.548c.344 13.616-33.311 44.584-82.544 44.584-49.237 0-81.587-9.943-81.587-37.207 0-27.264 39.948-47.548 89.153-49.365 60.457-2.251 74.246 14.557 74.978 41.988z"/>
  <path fill="#295897" d="M243.201 56.495c.342 13.542-33.085 44.276-81.97 44.276-48.889 0-81.022-9.893-81.022-36.962 0-27.071 39.665-47.214 88.522-49.016 60.012-2.232 73.746 14.466 74.47 41.702z"/>
  <path fill="#2A5998" d="M242.472 56.442c.338 13.467-32.86 43.968-81.396 43.968-48.54 0-80.456-9.841-80.456-36.718 0-26.878 39.382-46.88 87.891-48.667 59.564-2.212 73.242 14.375 73.961 41.417z"/>
  <path fill="#2C5998" d="M241.741 56.39c.335 13.393-32.635 43.66-80.822 43.66-48.191 0-79.891-9.791-79.891-36.475 0-26.685 39.099-46.546 87.26-48.316 59.119-2.194 72.741 14.283 73.453 41.131z"/>
  <path fill="#2D5A99" d="M241.012 56.336c.332 13.318-32.41 43.352-80.249 43.352-47.842 0-79.325-9.74-79.325-36.23 0-26.492 38.816-46.213 86.627-47.967 58.673-2.174 72.241 14.193 72.947 40.845z"/>
  <path fill="#2E5B99" d="M240.281 56.284c.329 13.244-32.185 43.043-79.674 43.043-47.494 0-78.76-9.689-78.76-35.986 0-26.298 38.533-45.879 85.997-47.618 58.226-2.153 71.738 14.102 72.437 40.561z"/>
  <path fill="#2F5B99" d="M239.551 56.231c.327 13.169-31.959 42.735-79.1 42.735-47.145 0-78.194-9.638-78.194-35.743 0-26.105 38.25-45.545 85.365-47.268 57.78-2.133 71.236 14.012 71.929 40.276z"/>
  <path fill="#315C9A" d="M238.821 56.178c.323 13.095-31.734 42.428-78.527 42.428-46.796 0-77.628-9.587-77.628-35.499 0-25.912 37.967-45.211 84.734-46.918 57.334-2.115 70.735 13.92 71.421 39.989z"/>
  <path fill="#325C9A" d="M238.091 56.125c.32 13.021-31.509 42.119-77.953 42.119-46.448 0-77.063-9.536-77.063-35.254 0-25.719 37.684-44.877 84.102-46.568 56.888-2.096 70.234 13.828 70.914 39.703z"/>
  <path fill="#335D9B" d="M237.361 56.072c.317 12.947-31.284 41.812-77.379 41.812-46.099 0-76.497-9.485-76.497-35.011 0-25.526 37.401-44.543 83.471-46.219 56.441-2.076 69.732 13.738 70.405 39.418z"/>
  <path fill="#355D9B" d="M236.631 56.019c.314 12.872-31.059 41.503-76.805 41.503-45.75 0-75.932-9.435-75.932-34.767 0-25.333 37.118-44.21 82.84-45.869 55.995-2.055 69.23 13.648 69.897 39.133z"/>
  <path fill="#375F9C" d="M235.901 55.966c.312 12.797-30.833 41.195-76.231 41.195-45.402 0-75.366-9.384-75.366-34.523 0-25.14 36.835-43.876 82.208-45.519 55.55-2.036 68.728 13.556 69.389 38.847z"/>
  <path fill="#38609D" d="M235.171 55.913c.309 12.723-30.607 40.887-75.657 40.887-45.053 0-74.8-9.333-74.8-34.279 0-24.947 36.552-43.542 81.577-45.17 55.102-2.016 68.226 13.466 68.88 38.562z"/>
  <path fill="#3A609D" d="M234.441 55.86c.305 12.649-30.383 40.579-75.084 40.579-44.704 0-74.234-9.282-74.234-34.035 0-24.753 36.269-43.208 80.945-44.82 54.657-1.997 67.725 13.375 68.373 38.276z"/>
  <path fill="#3B609D" d="M233.711 55.808c.303 12.574-30.157 40.271-74.509 40.271-44.356 0-73.669-9.231-73.669-33.792s35.986-42.875 80.314-44.47c54.21-1.978 67.222 13.284 67.864 37.991z"/>
  <path fill="#3C619D" d="M232.981 55.754c.299 12.5-29.933 39.963-73.936 39.963-44.007 0-73.104-9.181-73.104-33.547 0-24.367 35.703-42.541 79.682-44.121 53.765-1.958 66.723 13.193 67.358 37.705z"/>
  <path fill="#3D619D" d="M232.251 55.702c.297 12.425-29.707 39.655-73.362 39.655-43.658 0-72.538-9.13-72.538-33.303 0-24.174 35.42-42.207 79.051-43.771 53.318-1.939 66.22 13.101 66.849 37.419z"/>
  <path fill="#3E629E" d="M231.521 55.649c.293 12.351-29.482 39.347-72.789 39.347-43.31 0-71.972-9.079-71.972-33.06s35.137-41.873 78.42-43.421c52.872-1.919 65.718 13.01 66.341 37.134z"/>
  <path fill="#3F639F" d="M230.791 55.596c.29 12.277-29.257 39.039-72.214 39.039-42.96 0-71.407-9.028-71.407-32.815s34.854-41.539 77.789-43.072c52.425-1.9 65.216 12.919 65.832 36.848z"/>
  <path fill="#40649F" d="M230.061 55.543c.288 12.202-29.031 38.73-71.64 38.73-42.612 0-70.841-8.977-70.841-32.571 0-23.595 34.571-41.206 77.157-42.723 51.978-1.879 64.714 12.83 65.324 36.564z"/>
  <path fill="#41649F" d="M229.331 55.49c.284 12.127-28.807 38.422-71.066 38.422-42.264 0-70.276-8.927-70.276-32.328 0-23.402 34.289-40.872 76.526-42.373 51.532-1.859 64.213 12.739 64.816 36.279z"/>
  <path fill="#4365A0" d="M228.601 55.437c.282 12.054-28.581 38.114-70.492 38.114-41.915 0-69.71-8.875-69.71-32.083s34.005-40.538 75.895-42.023c51.085-1.841 63.709 12.647 64.307 35.992z"/>
  <path fill="#4566A1" d="M227.871 55.384c.278 11.979-28.356 37.806-69.919 37.806-41.566 0-69.145-8.825-69.145-31.84s33.723-40.204 75.264-41.673c50.64-1.821 63.208 12.557 63.8 35.707z"/>
  <path fill="#4666A1" d="M227.141 55.332c.275 11.904-28.131 37.498-69.345 37.498-41.217 0-68.579-8.774-68.579-31.596 0-22.823 33.439-39.87 74.631-41.324 50.194-1.801 62.708 12.465 63.293 35.422z"/>
  <path fill="#4767A2" d="M226.411 55.278c.272 11.83-27.906 37.19-68.771 37.19-40.869 0-68.014-8.723-68.014-31.352 0-22.629 33.157-39.536 74-40.974 49.748-1.781 62.206 12.375 62.785 35.136z"/>
  <path fill="#4868A2" d="M225.681 55.226c.27 11.755-27.681 36.882-68.197 36.882-40.52 0-67.448-8.672-67.448-31.108s32.874-39.202 73.369-40.624c49.301-1.763 61.703 12.283 62.276 34.85z"/>
  <path fill="#4968A2" d="M224.951 55.173c.267 11.681-27.456 36.574-67.624 36.574-40.171 0-66.882-8.622-66.882-30.864s32.591-38.868 72.738-40.274c48.855-1.744 61.202 12.191 61.768 34.564z"/>
  <path fill="#4A69A3" d="M224.221 55.12c.264 11.607-27.23 36.266-67.049 36.266-39.822 0-66.316-8.571-66.316-30.62 0-22.05 32.308-38.535 72.106-39.925 48.407-1.723 60.699 12.101 61.259 34.279z"/>
  <path fill="#4B6AA4" d="M223.491 55.067c.26 11.532-27.006 35.958-66.476 35.958-39.474 0-65.751-8.52-65.751-30.376 0-21.857 32.025-38.201 71.475-39.575 47.962-1.704 60.199 12.01 60.752 33.993z"/>
  <path fill="#4C6BA4" d="M222.761 55.014c.258 11.458-26.779 35.649-65.901 35.649-39.125 0-65.186-8.469-65.186-30.132s31.742-37.867 70.843-39.226c47.516-1.683 59.697 11.921 60.244 33.709z"/>
  <path fill="#4D6BA4" d="M222.031 54.961c.254 11.384-26.555 35.342-65.328 35.342-38.776 0-64.62-8.418-64.62-29.889 0-21.47 31.459-37.533 70.212-38.876 47.07-1.664 59.195 11.829 59.736 33.423z"/>
  <path fill="#4F6CA5" d="M221.301 54.908c.252 11.309-26.329 35.033-64.754 35.033-38.428 0-64.054-8.367-64.054-29.644 0-21.277 31.176-37.199 69.581-38.526 46.622-1.645 58.693 11.738 59.227 33.137z"/>
  <path fill="#506DA6" d="M220.571 54.855c.248 11.234-26.104 34.725-64.181 34.725-38.079 0-63.489-8.316-63.489-29.4 0-21.084 30.893-36.865 68.95-38.177 46.177-1.625 58.192 11.647 58.72 32.852z"/>
  <path fill="#516EA6" d="M219.841 54.802c.245 11.16-25.879 34.417-63.606 34.417-37.731 0-62.923-8.266-62.923-29.157s30.61-36.531 68.318-37.827c45.73-1.605 57.689 11.557 58.211 32.567z"/>
  <path fill="#526EA7" d="M219.11 54.75c.243 11.086-25.653 34.109-63.032 34.109-37.382 0-62.358-8.214-62.358-28.913 0-20.698 30.327-36.197 67.687-37.477 45.285-1.586 57.189 11.465 57.703 32.281z"/>
  <path fill="#536FA7" d="M218.381 54.697c.239 11.011-25.429 33.801-62.458 33.801-37.033 0-61.792-8.164-61.792-28.668s30.044-35.864 67.055-37.128c44.837-1.567 56.686 11.373 57.195 31.995z"/>
  <path fill="#546FA7" d="M217.65 54.644c.237 10.937-25.203 33.493-61.884 33.493-36.685 0-61.227-8.113-61.227-28.425s29.761-35.53 66.424-36.778c44.392-1.547 56.185 11.283 56.687 31.71z"/>
  <path fill="#5570A8" d="M216.921 54.591c.233 10.862-24.979 33.185-61.311 33.185-36.335 0-60.661-8.063-60.661-28.181s29.479-35.196 65.792-36.428c43.947-1.528 55.684 11.192 56.18 31.424z"/>
  <path fill="#5671A9" d="M216.19 54.538c.23 10.789-24.753 32.877-60.736 32.877-35.987 0-60.096-8.011-60.096-27.937 0-19.926 29.196-34.862 65.162-36.079 43.499-1.508 55.181 11.101 55.67 31.139z"/>
  <path fill="#5771A9" d="M215.461 54.485c.228 10.714-24.528 32.569-60.163 32.569-35.639 0-59.53-7.96-59.53-27.693s28.913-34.528 64.53-35.729c43.053-1.488 54.68 11.01 55.163 30.853z"/>
  <path fill="#5872A9" d="M214.73 54.432c.225 10.639-24.303 32.261-59.589 32.261-35.29 0-58.964-7.91-58.964-27.449s28.63-34.194 63.899-35.379c42.607-1.469 54.178 10.919 54.654 30.567z"/>
  <path fill="#5A74AA" d="M214.001 54.379c.222 10.565-24.078 31.953-59.016 31.953-34.941 0-58.398-7.858-58.398-27.205 0-19.346 28.347-33.86 63.267-35.03 42.161-1.449 53.676 10.828 54.147 30.282z"/>
  <path fill="#5B74AB" d="M213.271 54.326c.219 10.491-23.853 31.645-58.441 31.645-34.592 0-57.833-7.808-57.833-26.961s28.063-33.527 62.636-34.681c41.713-1.429 53.174 10.738 53.638 29.997z"/>
  <path fill="#5C75AB" d="M212.541 54.273c.215 10.416-23.628 31.336-57.868 31.336-34.244 0-57.268-7.757-57.268-26.717s27.782-33.192 62.005-34.33c41.268-1.41 52.673 10.647 53.131 29.711z"/>
  <path fill="#5D76AC" d="M211.811 54.22c.213 10.342-23.402 31.028-57.293 31.028-33.895 0-56.702-7.706-56.702-26.473s27.498-32.859 61.373-33.981c40.821-1.39 52.17 10.557 52.622 29.426z"/>
  <path fill="#5E76AC" d="M211.081 54.167c.209 10.267-23.178 30.72-56.72 30.72-33.546 0-56.136-7.655-56.136-26.229 0-18.574 27.215-32.525 60.742-33.631 40.375-1.37 51.669 10.465 52.114 29.14z"/>
  <path fill="#5F77AC" d="M210.351 54.115c.207 10.192-22.952 30.412-56.146 30.412-33.197 0-55.57-7.604-55.57-25.985s26.932-32.191 60.11-33.282c39.928-1.351 51.167 10.374 51.606 28.855z"/>
  <path fill="#6078AD" d="M209.621 54.062c.203 10.119-22.727 30.104-55.572 30.104-32.849 0-55.005-7.554-55.005-25.742s26.649-31.857 59.479-32.932c39.482-1.331 50.665 10.283 51.098 28.57z"/>
  <path fill="#6179AE" d="M208.891 54.009c.2 10.044-22.501 29.796-54.998 29.796-32.5 0-54.439-7.503-54.439-25.498 0-17.994 26.366-31.523 58.847-32.582 39.036-1.312 50.164 10.192 50.59 28.284z"/>
  <path fill="#6279AE" d="M208.161 53.956c.197 9.969-22.276 29.488-54.425 29.488-32.151 0-53.874-7.452-53.874-25.254 0-17.801 26.083-31.189 58.216-32.232 38.591-1.293 49.663 10.101 50.083 27.998z"/>
  <path fill="#637AAE" d="M207.431 53.903c.194 9.895-22.051 29.18-53.851 29.18-31.803 0-53.308-7.401-53.308-25.01s25.8-30.856 57.584-31.883C196 24.917 207.018 36.2 207.431 53.903z"/>
  <path fill="#647BAF" d="M206.7 53.85c.192 9.821-21.825 28.872-53.276 28.872-31.454 0-52.743-7.35-52.743-24.766 0-17.415 25.517-30.522 56.954-31.533 37.697-1.254 48.659 9.919 49.065 27.427z"/>
  <path fill="#667CB0" d="M205.971 53.797c.188 9.746-21.601 28.563-52.703 28.563-31.105 0-52.177-7.299-52.177-24.522 0-17.222 25.234-30.188 56.322-31.184 37.251-1.232 48.157 9.83 48.558 27.143z"/>
  <path fill="#677DB0" d="M205.24 53.744C205.426 63.416 183.865 82 153.112 82c-30.757 0-51.612-7.249-51.612-24.278s24.951-29.854 55.691-30.834c36.805-1.214 47.656 9.737 48.049 26.856z"/>
  <path fill="#687EB1" d="M204.511 53.691c.183 9.597-21.15 27.947-51.555 27.947-30.408 0-51.046-7.198-51.046-24.034s24.668-29.521 55.059-30.484c36.358-1.194 47.154 9.647 47.542 26.571z"/>
  <path fill="#697EB1" d="M203.78 53.639c.18 9.523-20.925 27.639-50.981 27.639-30.059 0-50.48-7.147-50.48-23.79s24.385-29.187 54.428-30.135c35.912-1.175 46.652 9.556 47.033 26.286z"/>
  <path fill="#6A7FB1" d="M203.051 53.585c.177 9.449-20.7 27.332-50.408 27.332-29.71 0-49.915-7.096-49.915-23.546 0-16.449 24.102-28.853 53.796-29.785 35.467-1.155 46.152 9.464 46.527 25.999z"/>
  <path fill="#6B80B2" d="M202.32 53.533c.174 9.374-20.475 27.023-49.833 27.023-29.362 0-49.35-7.045-49.35-23.302s23.819-28.519 53.166-29.436c35.02-1.135 45.649 9.374 46.017 25.715z"/>
  <path fill="#6C81B3" d="M201.591 53.48c.189 9.299-20.25 26.715-49.26 26.715-29.013 0-48.784-6.995-48.784-23.058s23.536-28.185 52.534-29.086c34.573-1.116 45.181 9.282 45.51 25.429z"/>
  <path fill="#6D81B3" d="M200.86 53.427c.187 9.225-20.024 26.407-48.686 26.407-28.665 0-48.218-6.944-48.218-22.814 0-15.87 23.253-27.851 51.903-28.736 34.127-1.097 44.678 9.191 45.001 25.143z"/>
  <path fill="#6E82B4" d="M200.131 53.374c.184 9.15-19.8 26.099-48.112 26.099-28.316 0-47.652-6.893-47.652-22.571 0-15.677 22.97-27.517 51.271-28.386 33.68-1.077 44.176 9.101 44.493 24.858z"/>
  <path fill="#6F83B4" d="M199.4 53.321c.181 9.076-19.574 25.791-47.538 25.791-27.967 0-47.087-6.842-47.087-22.326 0-15.484 22.688-27.184 50.64-28.037 33.234-1.058 43.675 9.009 43.985 24.572z"/>
  <path fill="#7184B5" d="M198.671 53.268c.178 9.001-19.35 25.483-46.964 25.483-27.619 0-46.521-6.791-46.521-22.083 0-15.291 22.404-26.85 50.008-27.688 32.787-1.037 43.173 8.92 43.477 24.288z"/>
  <path fill="#7285B6" d="M197.94 53.215c.175 8.927-19.124 25.175-46.39 25.175-27.27 0-45.956-6.74-45.956-21.839 0-15.098 22.122-26.516 49.377-27.337 32.342-1.018 42.672 8.828 42.969 24.001z"/>
  <path fill="#7386B6" d="M197.211 53.163c.172 8.853-18.898 24.866-45.817 24.866-26.921 0-45.39-6.689-45.39-21.595 0-14.904 21.838-26.182 48.746-26.988 31.896-.998 42.17 8.737 42.461 23.717z"/>
  <path fill="#7486B6" d="M196.48 53.109c.169 8.778-18.673 24.559-45.243 24.559-26.572 0-44.825-6.639-44.825-21.351 0-14.711 21.556-25.848 48.114-26.638 31.451-.979 41.67 8.646 41.954 23.43z"/>
  <path fill="#7587B7" d="M195.75 53.057c.166 8.704-18.447 24.25-44.668 24.25-26.224 0-44.259-6.588-44.259-21.107 0-14.519 21.272-25.514 47.483-26.289 31.003-.959 41.165 8.556 41.444 23.146z"/>
  <path fill="#7688B7" d="M195.021 53.004c.163 8.629-18.223 23.942-44.095 23.942-25.875 0-43.694-6.537-43.694-20.863 0-14.325 20.99-25.18 46.852-25.939 30.557-.94 40.664 8.464 40.937 22.86z"/>
  <path fill="#7788B8" d="M194.29 52.951c.161 8.555-17.997 23.634-43.521 23.634-25.526 0-43.128-6.486-43.128-20.619 0-14.132 20.707-24.847 46.22-25.589 30.112-.92 40.162 8.373 40.429 22.574z"/>
  <path fill="#7889B8" d="M193.561 52.898c.157 8.48-17.772 23.326-42.947 23.326-25.178 0-42.563-6.436-42.563-20.375s20.424-24.513 45.589-25.24c29.664-.901 39.661 8.283 39.921 22.289z"/>
  <path fill="#798AB9" d="M192.83 52.845c.154 8.406-17.547 23.019-42.373 23.019-24.829 0-41.997-6.385-41.997-20.131s20.141-24.179 44.958-24.89c29.218-.882 39.158 8.19 39.412 22.002z"/>
  <path fill="#7A8BB9" d="M192.101 52.792c.151 8.332-17.322 22.71-41.799 22.71-24.48 0-41.432-6.333-41.432-19.887 0-13.553 19.858-23.845 44.326-24.54 28.772-.862 38.657 8.1 38.905 21.717z"/>
  <path fill="#7C8CBA" d="M191.37 52.739c.148 8.257-17.097 22.402-41.225 22.402-24.132 0-40.866-6.283-40.866-19.643s19.575-23.511 43.695-24.191c28.326-.842 38.155 8.009 38.396 21.432z"/>
  <path fill="#7D8DBB" d="M190.641 52.686c.146 8.183-16.872 22.094-40.652 22.094-23.783 0-40.3-6.232-40.3-19.399 0-13.167 19.292-23.177 43.063-23.841 27.879-.823 37.653 7.918 37.889 21.146z"/>
  <path fill="#7E8EBB" d="M189.91 52.633c.143 8.108-16.646 21.786-40.078 21.786-23.434 0-39.734-6.181-39.734-19.155 0-12.973 19.009-22.843 42.432-23.491 27.433-.803 37.151 7.827 37.38 20.86z"/>
  <path fill="#7F8EBC" d="M189.181 52.581c.14 8.034-16.422 21.478-39.504 21.478-23.085 0-39.169-6.13-39.169-18.912 0-12.78 18.726-22.509 41.801-23.142 26.986-.783 36.649 7.737 36.872 20.576z"/>
  <path fill="#808FBC" d="M188.45 52.527c.137 7.96-16.196 21.17-38.93 21.17-22.737 0-38.604-6.08-38.604-18.667 0-12.587 18.443-22.176 41.169-22.792 26.542-.764 36.148 7.645 36.365 20.289z"/>
  <path fill="#8090BD" d="M187.721 52.475c.134 7.885-15.972 20.861-38.356 20.861-22.388 0-38.038-6.028-38.038-18.423 0-12.394 18.16-21.842 40.538-22.442 26.093-.745 35.645 7.554 35.856 20.004z"/>
  <path fill="#8291BD" d="M186.99 52.422c.131 7.811-15.746 20.553-37.782 20.553-22.04 0-37.472-5.978-37.472-18.18 0-12.201 17.877-21.508 39.907-22.093 25.647-.724 35.142 7.465 35.347 19.72z"/>
  <path fill="#8392BE" d="M186.261 52.369c.127 7.736-15.521 20.246-37.209 20.246-21.691 0-36.906-5.927-36.906-17.936 0-12.008 17.594-21.174 39.275-21.743 25.201-.706 34.642 7.372 34.84 19.433z"/>
  <path fill="#8492BE" d="M185.53 52.316c.124 7.662-15.296 19.938-36.634 19.938-21.342 0-36.341-5.876-36.341-17.692 0-11.815 17.311-20.84 38.644-21.394 24.755-.686 34.139 7.282 34.331 19.148z"/>
  <path fill="#8493BF" d="M184.801 52.263c.121 7.587-15.07 19.629-36.061 19.629-20.994 0-35.775-5.825-35.775-17.448 0-11.622 17.028-20.506 38.012-21.044 24.308-.665 33.637 7.192 33.824 18.863z"/>
  <path fill="#8795C0" d="M184.07 52.21c.118 7.513-14.845 19.321-35.487 19.321-20.645 0-35.21-5.774-35.21-17.204 0-11.428 16.745-20.173 37.381-20.694 23.863-.646 33.136 7.1 33.316 18.577z"/>
  <path fill="#8896C0" d="M183.34 52.157c.115 7.438-14.619 19.013-34.913 19.013-20.296 0-34.644-5.724-34.644-16.96 0-11.235 16.462-19.839 36.75-20.344 23.416-.627 32.632 7.009 32.807 18.291z"/>
  <path fill="#8896C1" d="M182.61 52.104c.112 7.364-14.395 18.705-34.339 18.705-19.947 0-34.079-5.672-34.079-16.716 0-11.042 16.179-19.505 36.118-19.995 22.971-.607 32.131 6.919 32.3 18.006z"/>
  <path fill="#8997C1" d="M181.88 52.051c.108 7.29-14.169 18.397-33.765 18.397-19.599 0-33.513-5.622-33.513-16.472 0-10.849 15.896-19.171 35.487-19.645 22.523-.587 31.629 6.827 31.791 17.72z"/>
  <path fill="#8A98C2" d="M181.15 51.999c.105 7.215-13.944 18.089-33.191 18.089-19.25 0-32.948-5.571-32.948-16.229 0-10.656 15.613-18.837 34.855-19.295 22.078-.568 31.128 6.736 31.284 17.435z"/>
  <path fill="#8B99C2" d="M180.42 51.946c.103 7.141-13.719 17.78-32.617 17.78-18.901 0-32.382-5.52-32.382-15.984 0-10.463 15.33-18.504 34.224-18.946 21.631-.548 30.625 6.645 30.775 17.15z"/>
  <path fill="#8C99C3" d="M179.69 51.893c.1 7.067-13.494 17.473-32.044 17.473-18.553 0-31.816-5.469-31.816-15.74 0-10.27 15.047-18.17 33.593-18.596 21.184-.53 30.122 6.553 30.267 16.863z"/>
  <path fill="#8D9AC3" d="M178.96 51.84c.096 6.993-13.269 17.165-31.47 17.165-18.204 0-31.25-5.418-31.25-15.497 0-10.077 14.765-17.836 32.961-18.247 20.738-.509 29.62 6.464 29.759 16.579z"/>
  <path fill="#8E9BC4" d="M178.23 51.787c.093 6.918-13.044 16.856-30.896 16.856-17.855 0-30.686-5.368-30.686-15.253 0-9.883 14.482-17.502 32.33-17.897 20.293-.489 29.12 6.374 29.252 16.294z"/>
  <path fill="#8F9BC4" d="M177.5 51.734c.09 6.844-12.818 16.548-30.322 16.548-17.507 0-30.12-5.317-30.12-15.008 0-9.69 14.199-17.168 31.699-17.547 19.847-.471 28.615 6.281 28.743 16.007z"/>
  <path fill="#919DC5" d="M176.771 51.681c.086 6.769-12.594 16.24-29.749 16.24-17.158 0-29.554-5.266-29.554-14.765 0-9.498 13.916-16.834 31.067-17.198 19.4-.449 28.114 6.192 28.236 15.723z"/>
  <path fill="#929EC6" d="M176.04 51.628c.083 6.695-12.368 15.932-29.174 15.932-16.809 0-28.988-5.215-28.988-14.521 0-9.304 13.633-16.5 30.436-16.848 18.953-.43 27.61 6.101 27.726 15.437z"/>
  <path fill="#939FC6" d="M175.311 51.575c.08 6.621-12.144 15.624-28.601 15.624-16.461 0-28.423-5.164-28.423-14.277 0-9.111 13.35-16.167 29.805-16.498 18.507-.411 27.108 6.009 27.219 15.151z"/>
  <path fill="#94A0C7" d="M174.58 51.522c.076 6.546-11.918 15.316-28.026 15.316-16.112 0-27.857-5.113-27.857-14.033 0-8.918 13.067-15.833 29.173-16.149 18.061-.391 26.606 5.919 26.71 14.866z"/>
  <path fill="#95A0C7" d="M173.851 51.47c.073 6.471-11.693 15.008-27.453 15.008-15.763 0-27.292-5.063-27.292-13.789 0-8.725 12.784-15.499 28.542-15.799 17.614-.373 26.104 5.827 26.203 14.58z"/>
  <path fill="#96A1C8" d="M173.12 51.417c.069 6.397-11.467 14.7-26.879 14.7-15.415 0-26.726-5.012-26.726-13.545 0-8.532 12.501-15.165 27.911-15.449 17.168-.353 25.601 5.735 25.694 14.294z"/>
  <path fill="#97A2C8" d="M172.391 51.364c.066 6.323-11.243 14.392-26.306 14.392-15.065 0-26.161-4.961-26.161-13.301 0-8.338 12.218-14.831 27.279-15.1 16.723-.334 25.1 5.645 25.188 14.009z"/>
  <path fill="#98A3C9" d="M171.66 51.311c.063 6.248-11.017 14.083-25.731 14.083-14.717 0-25.595-4.91-25.595-13.057 0-8.146 11.935-14.498 26.647-14.75 16.277-.313 24.597 5.555 24.679 13.724z"/>
  <path fill="#99A4C9" d="M170.93 51.258c.06 6.174-10.792 13.776-25.157 13.776-14.369 0-25.03-4.859-25.03-12.813 0-7.953 11.652-14.164 26.017-14.4 15.829-.295 24.094 5.463 24.17 13.437z"/>
  <path fill="#9AA4C9" d="M170.2 51.205c.056 6.1-10.567 13.467-24.583 13.467-14.02 0-24.464-4.808-24.464-12.569 0-7.759 11.369-13.83 25.385-14.051 15.383-.274 23.591 5.373 23.662 13.153z"/>
  <path fill="#9AA5CA" d="M169.47 51.152c.052 6.025-10.341 13.16-24.009 13.16-13.671 0-23.898-4.758-23.898-12.325 0-7.566 11.086-13.496 24.754-13.702 14.936-.255 23.087 5.282 23.153 12.867z"/>
  <path fill="#9DA7CC" d="M168.74 51.099c.049 5.951-10.116 12.852-23.436 12.852-13.322 0-23.333-4.707-23.333-12.082 0-7.373 10.803-13.162 24.122-13.352 14.491-.234 22.587 5.191 22.647 12.582z"/>
  <path fill="#9EA8CC" d="M168.01 51.046c.033 5.876-9.891 12.543-22.861 12.543-12.974 0-22.768-4.656-22.768-11.837 0-7.18 10.521-12.828 23.491-13.002 14.045-.215 22.068 5.101 22.138 12.296z"/>
  <path fill="#9EA8CC" d="M167.28 50.993c.041 5.802-9.666 12.235-22.288 12.235-12.625 0-22.202-4.605-22.202-11.594 0-6.987 10.237-12.494 22.859-12.652 13.599-.195 21.581 5.01 21.631 12.011z"/>
  <path fill="#9FA9CD" d="M166.55 50.94c.027 5.728-9.44 11.927-21.714 11.927-12.276 0-21.636-4.554-21.636-11.35 0-6.794 9.955-12.161 22.229-12.303 13.151-.175 21.064 4.92 21.121 11.726z"/>
  <path fill="#A0AACD" d="M165.82 50.888c.023 5.653-9.216 11.619-21.141 11.619-11.928 0-21.07-4.503-21.07-11.105 0-6.601 9.671-11.827 21.597-11.953 12.706-.158 20.564 4.826 20.614 11.439z"/>
  <path fill="#A2ABCE" d="M165.09 50.834c.021 5.579-8.99 11.311-20.566 11.311-11.579 0-20.505-4.453-20.505-10.862 0-6.407 9.389-11.493 20.966-11.603 12.259-.137 20.061 4.737 20.105 11.154z"/>
  <path fill="#A2ACCE" d="M164.36 50.782c.018 5.504-8.766 11.003-19.993 11.003-11.23 0-19.939-4.402-19.939-10.618 0-6.214 9.105-11.159 20.334-11.253 11.813-.119 19.56 4.645 19.598 10.868z"/>
  <path fill="#A3ADCF" d="M163.63 50.729c.015 5.43-8.54 10.695-19.418 10.695-10.882 0-19.374-4.351-19.374-10.374 0-6.021 8.823-10.825 19.703-10.904 11.366-.098 19.058 4.554 19.089 10.583z"/>
  <path fill="#A4ADCF" d="M162.9 50.676c.012 5.355-8.315 10.387-18.845 10.387-10.533 0-18.808-4.3-18.808-10.13 0-5.828 8.54-10.491 19.071-10.554 10.921-.079 18.557 4.463 18.582 10.297z"/>
  <path fill="#A5AECF" d="M162.17 50.623c.009 5.281-8.089 10.079-18.271 10.079-10.184 0-18.243-4.249-18.243-9.886 0-5.635 8.257-10.157 18.44-10.205 10.475-.059 18.055 4.373 18.074 10.012z"/>
  <path fill="#A7B0D1" d="M161.44 50.57c.006 5.207-7.864 9.771-17.697 9.771-9.836 0-17.677-4.199-17.677-9.643 0-5.442 7.974-9.823 17.809-9.855 10.027-.039 17.552 4.282 17.565 9.727z"/>
  <path fill="#A8B1D1" d="M160.71 50.517c.003 5.132-7.639 9.462-17.123 9.462-9.487 0-17.112-4.147-17.112-9.398 0-5.249 7.691-9.49 17.178-9.505 9.581-.019 17.051 4.191 17.057 9.441z"/>
  <path fill="#A9B1D2" d="M159.98 50.464c0 5.058-7.414 9.154-16.549 9.154-9.138 0-16.546-4.097-16.546-9.154 0-5.056 7.408-9.156 16.546-9.156 9.135.001 16.549 4.101 16.549 9.156z"/>
  <linearGradient id="a" gradientUnits="userSpaceOnUse" x1="212.011" y1="152.732" x2="184.906" y2="-28.921">
    <stop offset=".005"/>
    <stop offset=".006" stop-color="#040404"/>
    <stop offset=".052" stop-color="#444550"/>
    <stop offset=".099" stop-color="#4c536a"/>
    <stop offset=".146" stop-color="#455378"/>
    <stop offset=".194" stop-color="#344f80"/>
    <stop offset=".241" stop-color="#1d4b84"/>
    <stop offset=".289" stop-color="#004787"/>
    <stop offset=".336" stop-color="#004588"/>
    <stop offset=".385" stop-color="#004489"/>
    <stop offset="1" stop-color="#004489"/>
  </linearGradient>
  <path fill="url(#a)" d="M234.61 12.211c20.157 10.472 32.646 24.991 32.646 41.042 0 31.918-49.38 57.794-110.294 57.794-35.369 0-66.847-8.727-87.033-22.292 9.736 32.798 64.584 57.917 130.789 57.917 73.084 0 132.322-30.61 132.322-68.367.001-31.701-41.774-58.362-98.43-66.094z"/>
  <g>
    <path fill="none" stroke="#000" stroke-width="1.811" d="M343.754 78.156c0 42.665-64.174 77.251-143.341 77.251-79.159 0-143.333-34.586-143.333-77.251S121.254.905 200.413.905c79.167 0 143.341 34.587 143.341 77.251z"/>
    <path fill="none" stroke="#000" stroke-width=".905" d="M331.987 77.855c0 37.498-58.838 67.896-131.421 67.896-72.576 0-131.418-30.398-131.418-67.896 0-37.501 58.842-67.899 131.418-67.899 72.583.001 131.421 30.398 131.421 67.899z"/>
    <path fill="none" d="M343.754 78.156c0 42.665-64.174 77.251-143.341 77.251-79.159 0-143.333-34.586-143.333-77.251S121.254.905 200.413.905c79.167 0 143.341 34.587 143.341 77.251z"/>
    <path fill="none" d="M341.342 77.4c0 41.248-63.031 74.688-140.775 74.688-77.745 0-140.769-33.439-140.769-74.688 0-41.247 63.023-74.686 140.769-74.686 77.744 0 140.775 33.44 140.775 74.686z"/>
    <linearGradient id="b" gradientUnits="userSpaceOnUse" x1="57.08" y1="78.156" x2="343.754" y2="78.156">
      <stop offset=".005" stop-color="gray"/>
      <stop offset=".154" stop-color="#fff"/>
      <stop offset=".194" stop-color="#f4f4f4"/>
      <stop offset=".3" stop-color="#ddd"/>
      <stop offset=".399" stop-color="#cecece"/>
      <stop offset=".483" stop-color="#c9c9c9"/>
      <stop offset=".488" stop-color="silver"/>
      <stop offset=".514" stop-color="#979797"/>
      <stop offset=".539" stop-color="#757575"/>
      <stop offset=".565" stop-color="#5a5a5a"/>
      <stop offset=".592" stop-color="#474747"/>
      <stop offset=".619" stop-color="#3c3c3c"/>
      <stop offset=".648" stop-color="#383838"/>
      <stop offset=".835" stop-color="#383838"/>
      <stop offset="1" stop-color="#7a7a7a"/>
    </linearGradient>
    <path fill="url(#b)" d="M200.413.905C121.254.905 57.08 35.491 57.08 78.156s64.174 77.251 143.333 77.251c79.167 0 143.341-34.586 143.341-77.251S279.58.905 200.413.905zm.153 151.183c-77.745 0-140.769-33.439-140.769-74.688 0-41.247 63.023-74.686 140.769-74.686 77.744 0 140.775 33.439 140.775 74.686.001 41.248-63.03 74.688-140.775 74.688z"/>
    <path fill="none" d="M331.987 77.855c0 37.498-58.838 67.896-131.421 67.896-72.576 0-131.418-30.398-131.418-67.896 0-37.501 58.842-67.899 131.418-67.899 72.583.001 131.421 30.398 131.421 67.899z"/>
    <linearGradient id="c" gradientUnits="userSpaceOnUse" x1="57.08" y1="78.156" x2="343.754" y2="78.156">
      <stop offset=".005" stop-color="#d1d1d1"/>
      <stop offset=".456" stop-color="#4d4d4d"/>
      <stop offset="1" stop-color="#a6a6a6"/>
    </linearGradient>
    <path fill="url(#c)" d="M200.413.905C121.254.905 57.08 35.491 57.08 78.156s64.174 77.251 143.333 77.251c79.167 0 143.341-34.586 143.341-77.251S279.58.905 200.413.905zm.153 144.846c-72.576 0-131.418-30.398-131.418-67.896 0-37.501 58.842-67.899 131.418-67.899 72.583 0 131.421 30.398 131.421 67.899 0 37.498-58.838 67.896-131.421 67.896z"/>
    <linearGradient id="d" gradientUnits="userSpaceOnUse" x1="139.909" y1="15.562" x2="257.142" y2="136.869">
      <stop offset=".005" stop-color="#e6e6e6"/>
      <stop offset=".456" stop-color="#595959"/>
      <stop offset=".835" stop-color="gray"/>
      <stop offset="1" stop-color="#d9d9d9"/>
    </linearGradient>
    <path fill="url(#d)" d="M199.961 4.075c-76.66 0-138.808 32.963-138.808 73.627 0 40.666 62.148 73.629 138.808 73.629 76.668 0 138.812-32.963 138.812-73.629-.001-40.663-62.144-73.627-138.812-73.627zm.605 141.676c-72.576 0-131.418-30.398-131.418-67.896 0-37.501 58.842-67.899 131.418-67.899 72.583 0 131.421 30.398 131.421 67.899 0 37.498-58.838 67.896-131.421 67.896z"/>
    <linearGradient id="e" gradientUnits="userSpaceOnUse" x1="147.087" y1="46.693" x2="300.386" y2="136.017">
      <stop offset=".005" stop-color="#f2f2f2"/>
      <stop offset=".346" stop-color="#1a1a1a"/>
      <stop offset=".588" stop-color="#3d3d3d"/>
      <stop offset=".696" stop-color="#484848"/>
      <stop offset=".769" stop-color="#525252"/>
      <stop offset="1" stop-color="#bdbdbd"/>
    </linearGradient>
    <path fill="url(#e)" d="M200.566 8.867c-73.744 0-133.525 30.887-133.525 68.989 0 38.101 59.781 68.989 133.525 68.989 73.747 0 133.527-30.888 133.527-68.989.001-38.103-59.78-68.989-133.527-68.989zm0 136.884c-72.576 0-131.418-30.398-131.418-67.896 0-37.501 58.842-67.899 131.418-67.899 72.583 0 131.421 30.398 131.421 67.899 0 37.498-58.838 67.896-131.421 67.896z"/>
    <path fill="none" stroke="#000" stroke-width="1.811" d="M176.804 114.368s-13.803 1.055-13.729 2.563c.076 1.509 11.391 2.64 13.274 2.868 1.888.226 9.281 1.057 11.395 1.811 2.11.756 3.546 1.359 4.376 3.699.827 2.336 2.864 9.277 2.864 9.277s.98 3.846 1.812 3.846c.83 0 1.808-4.072 1.808-4.072s2.04-8.676 3.549-10.259c1.509-1.587 1.734-2.188 8.45-3.245 6.712-1.057 13.348-2.263 18.405-2.263s6.038.075 9.125.45c3.101.379 9.736 1.211 12.374 2.039 2.643.829 3.55 2.717 4.228 4.453.681 1.732 2.189 6.335 2.189 6.335s.376 1.887 1.283 1.887c.903 0 1.278-1.962 1.278-1.962s2.416-7.694 3.771-8.902c1.363-1.208 2.344-2.339 9.056-3.167 6.716-.833 10.713-1.662 13.053-1.813 2.335-.151 3.997-.454 3.997-1.206 0-.756-.907-1.057-4.224-1.51-3.319-.452-13.202-1.51-18.412-2.642-5.2-1.128-5.503-5.278-6.264-7.315-.751-2.037-1.276-5.282-2.485-5.282-1.21 0-1.506 2.188-1.735 2.868-.226.678-1.432 4.978-2.335 6.412-.908 1.434-1.589 3.017-5.131 3.698-3.546.678-10.185 2.11-16.445 2.261-6.261.149-9.81-.301-14.714-.905-4.901-.605-9.427-.829-12.823-2.341-3.396-1.507-5.131-6.484-6.038-9.501-.903-3.018-1.505-4.451-2.037-4.451-.528 0-1.505 2.263-2.109 4.223-.602 1.962-2.19 7.772-4.526 9.207-2.341 1.43-6.266 2.258-13.28 2.939z"/>
    <linearGradient id="f" gradientUnits="userSpaceOnUse" x1="222.819" y1="125.689" x2="259.484" y2="125.689">
      <stop offset=".082" stop-color="#999"/>
      <stop offset=".175" stop-color="#7c7c7c"/>
      <stop offset=".324" stop-color="#525252"/>
      <stop offset=".637" stop-color="#4a4a4a"/>
      <stop offset=".786" stop-color="#b0b0b0"/>
      <stop offset=".89" stop-color="#7a7a7a"/>
      <stop offset="1" stop-color="#9e9e9e"/>
    </linearGradient>
    <path fill="url(#f)" d="M259.335 127.797c-.149.678-.451 1.886-1.129 1.886-.682 0-.911-.754-1.21-1.736-.303-.983-.602-3.545-1.734-6.262-1.134-2.716-6.035-3.019-9.504-3.319s-17.529-.956-20.445-.678c-.403.038-1.116.054-2.034.116l-.459 1.217c2.229-.263 4.321-.428 6.188-.428 5.058 0 6.038.075 9.125.45 3.101.379 9.736 1.211 12.374 2.039 2.643.829 3.55 2.717 4.228 4.453.681 1.732 2.189 6.335 2.189 6.335s.376 1.887 1.283 1.887c.903 0 1.278-1.962 1.278-1.962l-.15-3.998z"/>
    <linearGradient id="g" gradientUnits="userSpaceOnUse" x1="276.648" y1="115.574" x2="276.648" y2="117.422">
      <stop offset=".137" stop-color="#e6e6e6"/>
      <stop offset=".505" stop-color="#ccc"/>
      <stop offset=".912" stop-color="#e0e0e0"/>
    </linearGradient>
    <path fill="url(#g)" d="M263.935 114.065c2.871 1.131 9.969 1.618 11.099 1.618 1.133 0 3.083-.11 3.083.871 0 .982-1.126 1.059-2.485 1.133l9.733.226c2.335-.151 3.997-.454 3.997-1.206 0-.756-.907-1.057-4.224-1.51-3.319-.452-13.202-1.51-18.412-2.642l-2.791 1.51z"/>
    <linearGradient id="h" gradientUnits="userSpaceOnUse" x1="235.435" y1="108.777" x2="256.177" y2="107.419">
      <stop offset=".082" stop-color="#999"/>
      <stop offset=".128" stop-color="#a4a4a4"/>
      <stop offset=".324" stop-color="#cfcfcf"/>
      <stop offset=".56" stop-color="#d9d9d9"/>
      <stop offset=".758" stop-color="#e0e0e0"/>
    </linearGradient>
    <path fill="url(#h)" d="M259.335 106.672c-.229-1.283-.754-2.414-1.358-2.414-.602 0-1.13 1.434-1.359 2.491-.223 1.055-.146 4.751-2.562 6.335-2.413 1.585-5.058 2.231-13.438 2.687-8.37.45-15.382.179-17.943.106l-.087-1.01c2.847.28 5.742.426 9.743.33 6.261-.151 12.899-1.583 16.445-2.261 3.542-.681 4.223-2.265 5.131-3.698.903-1.434 2.109-5.734 2.335-6.412.229-.68.525-2.868 1.735-2.868 1.209 0 1.734 3.245 2.485 5.282l-1.127 1.432z"/>
    <linearGradient id="i" gradientUnits="userSpaceOnUse" x1="209.669" y1="107.207" x2="220.787" y2="118.154">
      <stop offset=".082" stop-color="#ededed"/>
      <stop offset=".205" stop-color="#bcbcbc"/>
      <stop offset=".324" stop-color="#919191"/>
      <stop offset=".56" stop-color="#8c8c8c"/>
      <stop offset=".758" stop-color="#999"/>
    </linearGradient>
    <path fill="url(#i)" d="M203.736 111.34c.33.241.685.448 1.057.61 3.396 1.512 7.922 1.736 12.823 2.341 4.904.604 8.453 1.055 14.714.905l.052.737a221.29 221.29 0 01-9.708-.057c-2.569-.077-15.92-.454-20.144-1.888a5.89 5.89 0 01-1.126-.596l2.332-2.052z"/>
    <linearGradient id="j" gradientUnits="userSpaceOnUse" x1="199.147" y1="131.37" x2="221.214" y2="113.264">
      <stop offset=".082" stop-color="#949494"/>
      <stop offset=".164" stop-color="#7c7c7c"/>
      <stop offset=".324" stop-color="#525252"/>
      <stop offset=".56" stop-color="#4a4a4a"/>
      <stop offset=".758" stop-color="#999"/>
    </linearGradient>
    <path fill="url(#j)" d="M225.313 117.688c-2.489.073-16.373 1.283-20.067 1.508-3.695.228-4.978 2.563-5.506 3.622-.532 1.055-2.037 8.374-2.19 8.977-.152.603-.379 1.811-.754 1.811v4.826c.83 0 1.808-4.072 1.808-4.072s2.04-8.676 3.549-10.259c1.509-1.587 1.734-2.188 8.45-3.245 5.2-.819 10.355-1.726 14.77-2.095l-.06-1.073z"/>
    <linearGradient id="k" gradientUnits="userSpaceOnUse" x1="190.226" y1="124.421" x2="200.779" y2="142.726">
      <stop offset="0" stop-color="#d9d9d9"/>
      <stop offset=".203" stop-color="#6b6b6b"/>
      <stop offset=".206" stop-color="#6c6c6c"/>
      <stop offset=".445" stop-color="#969696"/>
      <stop offset=".56" stop-color="#969696"/>
      <stop offset=".758" stop-color="#a8a8a8"/>
    </linearGradient>
    <path fill="url(#k)" d="M183.742 118.744s4.529.224 6.34 1.055c1.808.829 3.393 1.735 3.845 3.546.452 1.809 1.964 8.297 2.113 8.9.149.604.379 1.361.755 1.361.375 0 .602-1.208.754-1.811l1.054 2.565s-.978 4.072-1.808 4.072c-.831 0-1.812-3.846-1.812-3.846s-2.037-6.941-2.864-9.277c-.83-2.339-2.266-2.942-4.376-3.699-.807-.288-2.381-.589-4.123-.858l.122-2.008z"/>
    <linearGradient id="l" gradientUnits="userSpaceOnUse" x1="195.707" y1="135.338" x2="197.952" y2="135.338">
      <stop offset=".214" stop-color="#969696"/>
      <stop offset=".363" stop-color="#adadad"/>
      <stop offset=".505" stop-color="#c9c9c9"/>
      <stop offset=".742" stop-color="#a3a3a3"/>
      <stop offset=".885" stop-color="#9e9e9e"/>
    </linearGradient>
    <path fill="url(#l)" d="M196.04 132.245c.149.604.379 1.361.755 1.361.285 0 .483-.678.625-1.274l.198 5.078c-.268.587-.549 1.022-.823 1.022-.271 0-.563-.414-.827-.97l.072-5.217z"/>
    <linearGradient id="m" gradientUnits="userSpaceOnUse" x1="173.793" y1="116.864" x2="187.373" y2="124.786">
      <stop offset="0" stop-color="#a8a8a8"/>
      <stop offset=".088" stop-color="#6b6b6b"/>
      <stop offset=".368" stop-color="#5e5e5e"/>
      <stop offset=".463" stop-color="#626262"/>
      <stop offset=".542" stop-color="#6c6c6c"/>
      <stop offset=".615" stop-color="#7d7d7d"/>
      <stop offset=".685" stop-color="#969696"/>
      <stop offset=".687" stop-color="#969696"/>
      <stop offset=".846" stop-color="#d9d9d9"/>
    </linearGradient>
    <path fill="url(#m)" d="M187.743 121.61c-2.113-.754-9.507-1.585-11.395-1.811-1.884-.228-13.198-1.359-13.274-2.868-.073-1.508 13.729-2.563 13.729-2.563l.379 1.432c-2.263.302-4.153.228-4.153.982s1.436 1.281 4.227 1.434c2.791.149 6.486.528 6.486.528s4.529.224 6.34 1.055l-2.339 1.811z"/>
    <linearGradient id="n" gradientUnits="userSpaceOnUse" x1="163.074" y1="107.464" x2="198.755" y2="107.464">
      <stop offset="0" stop-color="#a8a8a8"/>
      <stop offset="1" stop-color="#fff"/>
    </linearGradient>
    <path fill="url(#n)" d="M163.074 116.931c-.073-1.508 13.729-2.563 13.729-2.563 7.015-.681 10.939-1.508 13.278-2.94 2.336-1.434 3.925-7.244 4.526-9.207.604-1.96 1.581-4.223 2.109-4.223.532 0 1.134 1.434 2.037 4.451l-.754 3.167c-.452-2.715-.678-3.395-1.355-3.395-.682 0-1.134 2.037-1.513 3.848-.375 1.811-.938 6.818-4.521 7.92-3.925 1.208-6.111 1.585-13.429 1.811-2.263.302-4.153.228-4.153.982l-9.954.149z"/>
    <linearGradient id="o" gradientUnits="userSpaceOnUse" x1="196.799" y1="101.452" x2="204.55" y2="116.05">
      <stop offset="0" stop-color="#c7c7c7"/>
      <stop offset=".082" stop-color="#bdbdbd"/>
      <stop offset=".143" stop-color="#8c8c8c"/>
      <stop offset=".215" stop-color="#7e7e7e"/>
      <stop offset=".33" stop-color="#6b6b6b"/>
      <stop offset=".391" stop-color="#595959"/>
      <stop offset=".544" stop-color="#2e2e2e"/>
      <stop offset=".574" stop-color="#323232"/>
      <stop offset=".604" stop-color="#3e3e3e"/>
      <stop offset=".635" stop-color="#535353"/>
      <stop offset=".666" stop-color="#707070"/>
      <stop offset=".697" stop-color="#959595"/>
      <stop offset=".728" stop-color="#c1c1c1"/>
      <stop offset=".747" stop-color="#e0e0e0"/>
      <stop offset=".89" stop-color="#fff"/>
    </linearGradient>
    <path fill="url(#o)" d="M202.53 113.989c-2.416-.979-3.698-3.09-4.529-8.374-.452-2.715-.678-3.395-1.355-3.395l.072-4.223c.532 0 1.134 1.434 2.037 4.451.907 3.017 2.642 7.995 6.038 9.501l-2.263 2.04z"/>
    <linearGradient id="p" gradientUnits="userSpaceOnUse" x1="196.19" y1="100.232" x2="197.201" y2="100.232">
      <stop offset="0" stop-color="#fff"/>
      <stop offset=".451" stop-color="#bfbfbf"/>
      <stop offset=".824" stop-color="#c2c2c2"/>
    </linearGradient>
    <path fill="url(#p)" d="M196.252 102.466c.119-.156.251-.245.394-.245.201 0 .364.061.497.217l.059-4.077c-.167-.244-.33-.363-.483-.363-.146 0-.33.175-.528.476l.061 3.992z"/>
    <linearGradient id="q" gradientUnits="userSpaceOnUse" x1="168.42" y1="117.729" x2="168.436" y2="115.752">
      <stop offset="0" stop-color="#a6a6a6"/>
      <stop offset=".451" stop-color="#e6e6e6"/>
      <stop offset=".824" stop-color="#b8b8b8"/>
    </linearGradient>
    <path fill="url(#q)" d="M173.776 117.597c-.497-.225-.747-.499-.747-.815 0-.283.268-.45.72-.563l-8.61-.314c-1.255.309-2.086.655-2.064 1.027.017.386.761.746 1.901 1.073l8.8-.408z"/>
    <linearGradient id="r" gradientUnits="userSpaceOnUse" x1="275.876" y1="116.46" x2="268.566" y2="140.121">
      <stop offset=".005" stop-color="#fff"/>
      <stop offset=".006" stop-color="#fefefe"/>
      <stop offset=".035" stop-color="#cbcbcb"/>
      <stop offset=".064" stop-color="#a1a1a1"/>
      <stop offset=".092" stop-color="#818181"/>
      <stop offset=".118" stop-color="#6a6a6a"/>
      <stop offset=".143" stop-color="#5c5c5c"/>
      <stop offset=".165" stop-color="#575757"/>
      <stop offset=".204" stop-color="#686868"/>
      <stop offset=".281" stop-color="#959595"/>
      <stop offset=".341" stop-color="#bdbdbd"/>
      <stop offset=".454" stop-color="#a1a1a1"/>
      <stop offset=".511" stop-color="#919191"/>
      <stop offset=".857" stop-color="#b8b8b8"/>
    </linearGradient>
    <path fill="url(#r)" d="M258.206 133.757c.903 0 1.278-1.962 1.278-1.962s2.416-7.694 3.771-8.902c1.363-1.208 2.344-2.339 9.056-3.167 6.716-.833 10.713-1.662 13.053-1.813 2.335-.151 3.997-.454 3.997-1.206l-11.245-.153c0 .982-1.126 1.059-2.485 1.133-1.359.076-7.467.603-11.391 1.355-3.925.756-4.756 8.075-4.905 8.754-.149.678-.451 1.886-1.129 1.886v4.075z"/>
    <linearGradient id="s" gradientUnits="userSpaceOnUse" x1="258.485" y1="104.779" x2="270.065" y2="116.624">
      <stop offset=".082" stop-color="#dedede"/>
      <stop offset=".244" stop-color="#7d7d7d"/>
      <stop offset=".324" stop-color="#525252"/>
      <stop offset=".56" stop-color="#737373"/>
      <stop offset=".67" stop-color="#a0a0a0"/>
      <stop offset=".824" stop-color="#e6e6e6"/>
    </linearGradient>
    <path fill="url(#s)" d="M269.176 115.129c-2.002-.24-4.021-.582-5.241-1.063-2.864-1.13-3.922-3.094-4.6-7.394-.229-1.283-.754-2.414-1.358-2.414-.602 0-1.13 1.434-1.359 2.491l-.376-3.923c.229-.68.525-2.868 1.735-2.868 1.209 0 1.734 3.245 2.485 5.282.761 2.037 1.063 6.188 6.264 7.315.952.207 2.051.41 3.239.61l-.789 1.964z"/>
    <linearGradient id="t" gradientUnits="userSpaceOnUse" x1="257.187" y1="102.814" x2="258.919" y2="102.814">
      <stop offset="0" stop-color="#e3e3e3"/>
      <stop offset=".451" stop-color="#bababa"/>
      <stop offset=".764" stop-color="#dadada"/>
      <stop offset=".824" stop-color="#e0e0e0"/>
    </linearGradient>
    <path fill="url(#t)" d="M256.961 100.693c.236-.422.563-.735 1.016-.735.333 0 .615.245.861.646l.202 4.941c-.011-.028-.024-.057-.031-.083-.265-.709-.629-1.205-1.032-1.205-.41 0-.782.66-1.05 1.411l.034-4.975z"/>
    <linearGradient id="u" gradientUnits="userSpaceOnUse" x1="283.232" y1="116.009" x2="283.232" y2="117.083">
      <stop offset="0" stop-color="#e6e6e6"/>
      <stop offset=".054" stop-color="#ddd"/>
      <stop offset=".203" stop-color="#cbcbcb"/>
      <stop offset=".36" stop-color="silver"/>
      <stop offset=".538" stop-color="#bdbdbd"/>
      <stop offset=".645" stop-color="#c2c2c2"/>
      <stop offset=".772" stop-color="#d0d0d0"/>
      <stop offset=".908" stop-color="#e8e8e8"/>
      <stop offset="1" stop-color="#fcfcfc"/>
    </linearGradient>
    <path fill="url(#u)" d="M287.651 117.663c1.063-.191 1.71-.485 1.71-.956 0-.5-.396-.803-1.645-1.081l-10.612.073c.581.12 1.012.367 1.012.855 0 .278-.087.483-.247.636l9.782.473z"/>
    <linearGradient id="v" gradientUnits="userSpaceOnUse" x1="256.923" y1="130.777" x2="259.898" y2="130.777">
      <stop offset=".017" stop-color="#878787"/>
      <stop offset=".064" stop-color="#8a8a8a"/>
      <stop offset=".093" stop-color="#919191"/>
      <stop offset=".429" stop-color="#e0e0e0"/>
      <stop offset=".769" stop-color="#9e9e9e"/>
      <stop offset="1" stop-color="#adadad"/>
    </linearGradient>
    <path fill="url(#v)" d="M259.335 127.797c-.149.678-.451 1.886-1.129 1.886-.682 0-.911-.754-1.21-1.736l-.073 3.923s.376 1.856 1.283 1.887c1.129.037 1.692-3.321 1.692-3.321l-.563-2.639z"/>
    <path fill="none" stroke="#000" stroke-width="1.811" d="M271.217 90.611c-5.055-.01-11.693 1.229-18.409 2.305-6.713 1.078-6.938 1.691-8.443 3.304-1.516 1.617-3.549 10.453-3.549 10.453s-.98 4.15-1.812 4.15-1.811-3.919-1.811-3.919-2.037-7.07-2.864-9.453c-.835-2.381-2.263-2.996-4.377-3.768-2.116-.767-9.507-1.611-11.394-1.842-1.885-.229-13.199-1.384-13.275-2.92-.073-1.537 13.73-2.611 13.73-2.611 7.011-.693 10.938-1.54 13.274-2.998 2.343-1.46 3.925-7.379 4.529-9.376.602-1.997 1.582-4.301 2.11-4.301.531 0 1.137 1.456 2.037 4.533.907 3.074 2.638 8.147 6.037 9.682 3.393 1.535 7.926 1.768 12.823 2.383 0 0 5.851 1.13 12.034.977 6.188-.149 10.035-1.207 12.451-1.583 2.412-.377 6.938-1.133 8.367-4.451 1.436-3.318 2.867-8.147 3.928-8.223 1.053-.073 2.711 5.282 2.711 5.282s1.206 5.205 5.284 6.109c4.07.906 10.486 2.416 13.807 2.866 3.315.455 4.372.756 4.372 1.662 0 .903-4.445 1.357-4.445 1.357s-11.999 1.356-14.412 2.866c-2.415 1.509-3.851 2.565-5.662 10.713-.678 2.114-.827 3.092-1.509 3.092-.678 0-1.811-3.395-3.166-8.071-1.356-4.675-2.489-5.958-9.205-6.94-6.717-.983-9.574-1.269-13.161-1.278z"/>
    <linearGradient id="w" gradientUnits="userSpaceOnUse" x1="249.048" y1="81.457" x2="256.968" y2="89.257">
      <stop offset=".082" stop-color="#ededed"/>
      <stop offset=".205" stop-color="#bcbcbc"/>
      <stop offset=".324" stop-color="#919191"/>
      <stop offset=".56" stop-color="#8c8c8c"/>
      <stop offset=".758" stop-color="#999"/>
    </linearGradient>
    <path fill="url(#w)" d="M264.998 87.908c-2.572-.078-15.986-.46-20.23-1.915a5.713 5.713 0 01-1.134-.61l2.347-2.08c.33.243.682.452 1.057.622 3.413 1.533 7.957 1.761 12.886 2.374"/>
    <linearGradient id="x" gradientUnits="userSpaceOnUse" x1="241.284" y1="103.581" x2="263.543" y2="85.317">
      <stop offset=".082" stop-color="#949494"/>
      <stop offset=".164" stop-color="#7c7c7c"/>
      <stop offset=".324" stop-color="#525252"/>
      <stop offset=".56" stop-color="#4a4a4a"/>
      <stop offset=".758" stop-color="#999"/>
    </linearGradient>
    <path fill="url(#x)" d="M267.65 89.747c-2.503.077-16.445 1.304-20.161 1.533-3.706.229-4.999 2.604-5.53 3.678-.532 1.071-2.041 8.504-2.197 9.118-.152.61-.382 1.837-.758 1.837v4.905c.834 0 1.821-4.136 1.821-4.136s2.041-8.812 3.56-10.421c1.516-1.607 1.741-2.219 8.488-3.293 5.225-.833 10.404-1.755 14.833-2.127l-.056-1.094z"/>
    <linearGradient id="y" gradientUnits="userSpaceOnUse" x1="232.426" y1="96.589" x2="243.109" y2="115.121">
      <stop offset="0" stop-color="#d9d9d9"/>
      <stop offset=".203" stop-color="#6b6b6b"/>
      <stop offset=".206" stop-color="#6c6c6c"/>
      <stop offset=".445" stop-color="#969696"/>
      <stop offset=".56" stop-color="#969696"/>
      <stop offset=".758" stop-color="#a8a8a8"/>
    </linearGradient>
    <path fill="url(#y)" d="M225.896 90.821s4.546.226 6.36 1.07c1.825.843 3.414 1.764 3.865 3.603.459 1.837 1.972 8.428 2.124 9.04.149.612.379 1.378.758 1.378.376 0 .605-1.227.758-1.837l1.063 2.605s-.987 4.136-1.821 4.136-1.817-3.909-1.817-3.909-2.048-7.046-2.875-9.422c-.841-2.375-2.28-2.989-4.4-3.756-.807-.293-2.389-.596-4.141-.873l.126-2.035z"/>
    <linearGradient id="z" gradientUnits="userSpaceOnUse" x1="237.909" y1="107.675" x2="240.17" y2="107.675">
      <stop offset=".214" stop-color="#969696"/>
      <stop offset=".363" stop-color="#adadad"/>
      <stop offset=".505" stop-color="#c9c9c9"/>
      <stop offset=".742" stop-color="#a3a3a3"/>
      <stop offset=".885" stop-color="#9e9e9e"/>
    </linearGradient>
    <path fill="url(#z)" d="M238.246 104.534c.149.612.379 1.378.758 1.378.289 0 .486-.686.626-1.29l.205 5.155c-.271.596-.557 1.039-.831 1.039-.271 0-.56-.419-.831-.987l.073-5.295z"/>
    <linearGradient id="A" gradientUnits="userSpaceOnUse" x1="215.894" y1="88.93" x2="229.542" y2="96.891">
      <stop offset="0" stop-color="#a8a8a8"/>
      <stop offset=".088" stop-color="#6b6b6b"/>
      <stop offset=".368" stop-color="#5e5e5e"/>
      <stop offset=".463" stop-color="#626262"/>
      <stop offset=".542" stop-color="#6c6c6c"/>
      <stop offset=".615" stop-color="#7d7d7d"/>
      <stop offset=".685" stop-color="#969696"/>
      <stop offset=".687" stop-color="#969696"/>
      <stop offset=".846" stop-color="#d9d9d9"/>
    </linearGradient>
    <path fill="url(#A)" d="M229.911 93.73c-2.121-.766-9.549-1.609-11.443-1.839-1.895-.231-13.258-1.378-13.338-2.911-.08-1.533 13.793-2.605 13.793-2.605l.379 1.455c-2.276.308-4.164.233-4.164.996 0 .769 1.436 1.304 4.241 1.458 2.805.155 6.518.537 6.518.537s4.546.226 6.36 1.07l-2.346 1.839z"/>
    <linearGradient id="B" gradientUnits="userSpaceOnUse" x1="205.13" y1="79.365" x2="240.975" y2="79.365">
      <stop offset="0" stop-color="#a8a8a8"/>
      <stop offset="1" stop-color="#fff"/>
    </linearGradient>
    <path fill="url(#B)" d="M205.13 88.98c-.08-1.533 13.793-2.605 13.793-2.605 7.046-.69 10.988-1.531 13.334-2.988 2.357-1.457 3.945-7.354 4.554-9.349.605-1.99 1.585-4.29 2.12-4.29.528 0 1.141 1.457 2.044 4.522l-.758 3.217c-.455-2.758-.681-3.45-1.362-3.45-.685 0-1.14 2.072-1.516 3.909-.382 1.839-.949 6.922-4.547 8.045-3.941 1.223-6.139 1.607-13.49 1.837-2.276.308-4.164.233-4.164.996l-10.008.156z"/>
    <linearGradient id="C" gradientUnits="userSpaceOnUse" x1="238.959" y1="73.281" x2="246.818" y2="88.081">
      <stop offset="0" stop-color="#c7c7c7"/>
      <stop offset=".082" stop-color="#bdbdbd"/>
      <stop offset=".143" stop-color="#8c8c8c"/>
      <stop offset=".215" stop-color="#7e7e7e"/>
      <stop offset=".33" stop-color="#6b6b6b"/>
      <stop offset=".391" stop-color="#595959"/>
      <stop offset=".544" stop-color="#2e2e2e"/>
      <stop offset=".574" stop-color="#323232"/>
      <stop offset=".604" stop-color="#3e3e3e"/>
      <stop offset=".635" stop-color="#535353"/>
      <stop offset=".666" stop-color="#707070"/>
      <stop offset=".697" stop-color="#959595"/>
      <stop offset=".728" stop-color="#c1c1c1"/>
      <stop offset=".747" stop-color="#e0e0e0"/>
      <stop offset=".89" stop-color="#fff"/>
    </linearGradient>
    <path fill="url(#C)" d="M244.768 85.993c-2.43-.998-3.713-3.143-4.551-8.504-.455-2.758-.681-3.45-1.362-3.45l.076-4.29c.528 0 1.141 1.457 2.044 4.522.907 3.064 2.652 8.118 6.063 9.653l-2.27 2.069z"/>
    <path fill="none" d="M267.65 89.747c-2.503.063-16.445 1.304-20.161 1.533-3.706.229-4.999 2.604-5.53 3.678-.532 1.071-2.041 8.504-2.197 9.118-.152.61-.382 1.837-.758 1.837-.379 0-.608-.766-.758-1.378-.152-.612-1.665-7.203-2.124-9.04-.451-1.839-2.04-2.76-3.865-3.603-1.814-.844-6.36-1.07-6.36-1.07s-3.713-.382-6.518-.537c-2.806-.155-4.241-.69-4.241-1.458 0-.763 1.888-.688 4.164-.996 7.352-.229 9.549-.614 13.49-1.837 3.598-1.123 4.165-6.207 4.547-8.045.376-1.837.831-3.909 1.516-3.909.682 0 .907.691 1.362 3.45.838 5.362 2.121 7.507 4.551 8.504 4.244 1.455 17.658 1.837 20.23 1.915 0 0 7.994.13 12.138-.096 4.154-.228 11.475-.98 13.129-1.355 1.658-.38 3.998-1.286 4.453-4.001.452-2.715 1.13-5.81 1.961-5.81.827 0 1.282 2.339 1.432 2.942 0 0 .629 5.216 3.591 6.287 2.969 1.067 7.477 1.423 9.319 1.542 1.842.118 3.438.476 3.438 1.305 0 .833-2.37 1.364-3.379 1.364-1.004 0-6.229.179-8.071 1.01-1.839.833-3.444 1.425-4.153 4.986-.713 3.561-1.071 4.749-1.071 4.749s-.114 1.482-1.063 1.482c-.956 0-1.192-1.9-1.192-1.9s-1.126-5.579-1.895-6.825c-.771-1.246-1.664-3.027-8.964-3.262-7.306-.241-10.538-.744-17.021-.58z"/>
    <linearGradient id="D" gradientUnits="userSpaceOnUse" x1="313.067" y1="92.253" x2="294.059" y2="96.609">
      <stop offset="0" stop-color="#b8b8b8"/>
      <stop offset=".107" stop-color="#a0a0a0"/>
      <stop offset=".319" stop-color="#757575"/>
      <stop offset=".434" stop-color="#767676"/>
      <stop offset=".56" stop-color="#737373"/>
      <stop offset=".63" stop-color="#787878"/>
      <stop offset=".71" stop-color="#868686"/>
      <stop offset=".775" stop-color="#969696"/>
    </linearGradient>
    <path fill="url(#D)" d="M298.854 96.082c.709-3.561 2.314-4.154 4.153-4.986 1.843-.831 7.067-1.01 8.071-1.01 1.009 0 3.379-.532 3.379-1.364l8.321.148c0 .903-4.445 1.357-4.445 1.357s-11.999 1.356-14.412 2.866c-1.811 1.131-3.072 2.007-4.352 5.813l-.715-2.824z"/>
    <linearGradient id="E" gradientUnits="userSpaceOnUse" x1="309.281" y1="84.233" x2="314.7" y2="89.651">
      <stop offset="0" stop-color="#e6e6e6"/>
      <stop offset=".102" stop-color="#c8c8c8"/>
      <stop offset=".269" stop-color="#9c9c9c"/>
      <stop offset=".43" stop-color="#a6a6a6"/>
      <stop offset=".753" stop-color="#b7b7b7"/>
      <stop offset="1" stop-color="#bdbdbd"/>
    </linearGradient>
    <path fill="url(#E)" d="M301.701 85.875c2.969 1.067 7.477 1.423 9.319 1.542 1.842.118 3.438.476 3.438 1.305 0 .833-2.37 1.364-3.379 1.364l7.255.141s4.445-.454 4.445-1.357c0-.906-1.057-1.207-4.372-1.662-3.32-.45-9.736-1.96-13.807-2.866l-2.899 1.533z"/>
    <linearGradient id="F" gradientUnits="userSpaceOnUse" x1="296.396" y1="75.343" x2="302.581" y2="89.525">
      <stop offset=".143" stop-color="#dedede"/>
      <stop offset=".236" stop-color="#a0a0a0"/>
      <stop offset=".308" stop-color="#757575"/>
      <stop offset=".577" stop-color="#737373"/>
      <stop offset=".617" stop-color="#787878"/>
      <stop offset=".664" stop-color="#868686"/>
      <stop offset=".714" stop-color="#9d9d9d"/>
      <stop offset=".766" stop-color="#bdbdbd"/>
      <stop offset=".819" stop-color="#e6e6e6"/>
    </linearGradient>
    <path fill="url(#F)" d="M305.205 86.754c-1.237-.221-2.465-.506-3.504-.879-2.962-1.071-3.591-6.287-3.591-6.287-.149-.603-.604-2.942-1.432-2.942-.831 0-1.509 3.095-1.961 5.81l-2.04-1.283c1.436-3.318 2.867-8.147 3.928-8.223 1.053-.073 2.711 5.282 2.711 5.282s1.206 5.205 5.284 6.109c.671.149 1.418.316 2.196.496l-1.591 1.917z"/>
    <linearGradient id="G" gradientUnits="userSpaceOnUse" x1="258.96" y1="80.448" x2="296.679" y2="80.448">
      <stop offset=".082" stop-color="#999"/>
      <stop offset=".128" stop-color="#a4a4a4"/>
      <stop offset=".324" stop-color="#cfcfcf"/>
      <stop offset=".56" stop-color="#d9d9d9"/>
      <stop offset=".758" stop-color="#e0e0e0"/>
    </linearGradient>
    <path fill="url(#G)" d="M296.605 72.951c-1.061.075-2.492 4.905-3.928 8.223-1.429 3.318-5.955 4.074-8.367 4.451-2.416.377-6.264 1.434-12.451 1.583-6.184.153-12.034-.977-12.034-.977l-.865 1.441c2.788.143 5.109.208 6.038.236 0 0 7.994.13 12.138-.096 4.154-.228 11.475-.98 13.129-1.355 1.658-.38 3.998-1.286 4.453-4.001.452-2.715 1.13-5.81 1.961-5.81l-.074-3.695z"/>
    <linearGradient id="H" gradientUnits="userSpaceOnUse" x1="295.86" y1="75.152" x2="297.397" y2="75.152">
      <stop offset="0" stop-color="#e3e3e3"/>
      <stop offset=".11" stop-color="#dbdbdb"/>
      <stop offset=".281" stop-color="#c5c5c5"/>
      <stop offset=".451" stop-color="#a8a8a8"/>
      <stop offset=".671" stop-color="#c8c8c8"/>
      <stop offset=".824" stop-color="#e0e0e0"/>
    </linearGradient>
    <path fill="url(#H)" d="M295.99 77.355c.215-.443.444-.709.688-.709.284 0 .521.271.716.652v-3.676c-.274-.422-.55-.69-.789-.671-.243.016-.497.275-.771.704l.156 3.7z"/>
    <linearGradient id="I" gradientUnits="userSpaceOnUse" x1="295.306" y1="100.535" x2="300.092" y2="100.535">
      <stop offset="0" stop-color="#bababa"/>
      <stop offset=".115" stop-color="#a0a0a0"/>
      <stop offset=".319" stop-color="#757575"/>
      <stop offset=".434" stop-color="#767676"/>
      <stop offset=".56" stop-color="#737373"/>
      <stop offset=".663" stop-color="#787878"/>
      <stop offset=".775" stop-color="#858585"/>
    </linearGradient>
    <path fill="url(#I)" d="M300.092 97.513c-.602 1.44-1.188 3.429-1.832 6.293-.678 2.114-.827 3.092-1.509 3.092-.364 0-.854-.979-1.445-2.609l.222-3.876s.236 1.9 1.192 1.9c.949 0 1.063-1.482 1.063-1.482s.358-1.188 1.071-4.749a9.297 9.297 0 01.569-1.91l.669 3.341z"/>
    <linearGradient id="J" gradientUnits="userSpaceOnUse" x1="261.828" y1="94.271" x2="294.76" y2="94.271">
      <stop offset=".082" stop-color="#999"/>
      <stop offset=".175" stop-color="#7c7c7c"/>
      <stop offset=".324" stop-color="#525252"/>
      <stop offset=".56" stop-color="#404040"/>
      <stop offset=".747" stop-color="#999"/>
      <stop offset=".868" stop-color="#d1d1d1"/>
    </linearGradient>
    <path fill="url(#J)" d="M294.76 97.017c-.358-1.418-.779-2.864-1.127-3.429-.771-1.246-1.664-3.027-8.964-3.262-7.304-.24-10.536-.742-17.019-.579-.869.021-3.111.184-5.822.396l.149 1.307c3.382-.494 6.538-.845 9.239-.839 3.587.009 6.444.295 13.163 1.276 6.716.982 7.849 2.265 9.205 6.94l1.176-1.81z"/>
    <linearGradient id="K" gradientUnits="userSpaceOnUse" x1="298.028" y1="103.164" x2="290.901" y2="96.546">
      <stop offset="0" stop-color="#3b3b3b"/>
      <stop offset=".026" stop-color="#3d3d3d"/>
      <stop offset=".256" stop-color="#4c4c4c"/>
      <stop offset=".44" stop-color="#525252"/>
      <stop offset=".497" stop-color="#585858"/>
      <stop offset=".574" stop-color="#686868"/>
      <stop offset=".626" stop-color="#787878"/>
      <stop offset=".747" stop-color="#999"/>
      <stop offset=".868" stop-color="#d1d1d1"/>
    </linearGradient>
    <path fill="url(#K)" d="M293.995 94.396c.716 1.972 1.532 6.017 1.532 6.017s.236 1.9 1.192 1.9l.031 4.585c-.678 0-1.811-3.395-3.166-8.071-.296-1.008-.574-1.862-.907-2.586l1.318-1.845z"/>
    <linearGradient id="L" gradientUnits="userSpaceOnUse" x1="210.783" y1="88.023" x2="210.783" y2="89.931">
      <stop offset="0" stop-color="#bdbdbd"/>
      <stop offset=".451" stop-color="#d9d9d9"/>
      <stop offset=".824" stop-color="#a8a8a8"/>
    </linearGradient>
    <path fill="url(#L)" d="M207.251 90.126c-1.255-.348-2.097-.732-2.121-1.146-.017-.398.9-.765 2.273-1.088l9.034.254c-.799.116-1.3.287-1.3.679 0 .268.17.508.521.713l-8.407.588z"/>
    <linearGradient id="M" gradientUnits="userSpaceOnUse" x1="238.395" y1="72.019" x2="239.411" y2="72.019">
      <stop offset="0" stop-color="#fff"/>
      <stop offset=".451" stop-color="#bfbfbf"/>
      <stop offset=".824" stop-color="#c2c2c2"/>
    </linearGradient>
    <path fill="url(#M)" d="M238.458 74.289c.122-.16.254-.25.396-.25.202 0 .365.063.504.221l.053-4.14c-.167-.247-.327-.37-.48-.37-.152 0-.333.181-.535.485l.062 4.054z"/>
    <path fill="none" stroke="#000" stroke-width="1.811" d="M100.043 57.674l-16.521 2.263s-2.944.113-2.944 1.247c0 1.131 2.493 1.131 3.396 1.244.907.113 18.558 2.489 18.558 2.489s28.18 3.848 30.892 4.3c2.718.454 10.299 1.471 13.581 4.415 3.282 2.941 6.111 9.278 8.148 18.67a416.02 416.02 0 004.185 17.427s.341 2.828 1.467 2.828c1.141 0 1.478-2.941 1.478-2.941s5.544-22.066 6.903-25.914c1.355-3.846 3.281-11.996 15.614-13.918 12.333-1.924 35.306-4.526 35.306-4.526s22.407-2.717 30.106-2.265c7.688.454 16.292 1.585 18.443 1.924 2.148.341 5.617.716 7.13 4.489 1.505 3.771 3.166 10.863 3.166 10.863s.528 2.188 1.356 2.188c.83 0 1.358-2.037 1.358-2.037s2.489-8.6 3.396-10.788c.907-2.19 2.718-4.072 9.431-4.905 6.715-.831 13.807-2.337 13.807-2.337s3.393-.075 3.393-1.359c0-1.283-3.622-1.355-3.622-1.355l-15.392-2.491s-6.185-.452-7.766-4.526c-1.585-4.074-3.247-8.526-3.247-8.526s-.302-1.81-1.206-1.81c-.907 0-1.359 2.187-1.359 2.187s-1.811 6.262-3.243 8.299-3.166 4.074-10.786 4.829c-7.619.754-11.616 1.583-14.634 1.66-3.021.076-9.284.076-14.262-.527-4.975-.603-37.19-4.527-37.19-4.527s-12.899-1.434-16.977-2.791c-4.07-1.357-10.035-1.585-14.634-15.995-4.603-14.408-4.901-15.465-4.901-15.465s-.383-2.638-1.669-2.638c-1.272 0-1.651 2.94-1.651 2.94s-5.134 16.675-7.55 21.652c-2.413 4.978-4.147 9.656-24.287 11.919-17.881 2.338-27.273 3.808-27.273 3.808z"/>
    <linearGradient id="N" gradientUnits="userSpaceOnUse" x1="96.359" y1="62.876" x2="158.146" y2="72.382">
      <stop offset="0" stop-color="#a8a8a8"/>
      <stop offset=".088" stop-color="#6b6b6b"/>
      <stop offset=".368" stop-color="#4d4d4d"/>
      <stop offset=".452" stop-color="#505050"/>
      <stop offset=".522" stop-color="#5a5a5a"/>
      <stop offset=".588" stop-color="#6c6c6c"/>
      <stop offset=".649" stop-color="#848484"/>
      <stop offset=".687" stop-color="#969696"/>
      <stop offset=".846" stop-color="#f0f0f0"/>
    </linearGradient>
    <path fill="url(#N)" d="M149.809 69.706c-2.263-1.62-4.783-2.195-7.105-2.638-5.314-1.021-25.573-3.057-25.573-3.057l-20.029-1.696s-3.852-.341-3.852-1.245c0-.905 3.852-1.02 3.852-1.02l-13.581-.113s-2.944.113-2.944 1.247c0 1.131 2.493 1.131 3.396 1.244.907.113 18.558 2.489 18.558 2.489s28.18 3.848 30.892 4.3c2.718.454 10.299 1.471 13.581 4.415l2.805-3.926z"/>
    <linearGradient id="O" gradientUnits="userSpaceOnUse" x1="80.577" y1="39.268" x2="162.473" y2="39.268">
      <stop offset="0" stop-color="#a8a8a8"/>
      <stop offset=".61" stop-color="#f0f0f0"/>
      <stop offset=".736" stop-color="#fff"/>
      <stop offset=".8" stop-color="#fbfbfb"/>
      <stop offset=".871" stop-color="#ededed"/>
      <stop offset=".945" stop-color="#d7d7d7"/>
      <stop offset="1" stop-color="#c2c2c2"/>
    </linearGradient>
    <path fill="url(#O)" d="M162.473 19.99s-.383-2.638-1.669-2.638c-1.272 0-1.651 2.94-1.651 2.94s-5.134 16.675-7.55 21.652c-2.413 4.978-4.147 9.656-24.287 11.919-17.881 2.339-27.273 3.81-27.273 3.81l-16.521 2.263s-2.944.113-2.944 1.247l12.674-.113c0-.905 3.852-1.02 3.852-1.02l15.162-1.357s17.203-1.417 25.462-2.263c8.259-.85 14.37-5.488 16.629-10.185 2.266-4.696 4.814-19.066 4.814-19.066s.448-4.641 1.633-4.641c1.196 0 1.533 4.526 1.533 4.526l.136-7.074z"/>
    <linearGradient id="P" gradientUnits="userSpaceOnUse" x1="159.153" y1="37.372" x2="195.648" y2="37.372">
      <stop offset="0" stop-color="#cfcfcf"/>
      <stop offset=".082" stop-color="#d9d9d9"/>
      <stop offset=".143" stop-color="#6b6b6b"/>
      <stop offset=".192" stop-color="#5f5f5f"/>
      <stop offset=".286" stop-color="#4d4d4d"/>
      <stop offset=".3" stop-color="#505050"/>
      <stop offset=".516" stop-color="#7a7a7a"/>
      <stop offset=".576" stop-color="#7f7f7f"/>
      <stop offset=".638" stop-color="#8b8b8b"/>
      <stop offset=".7" stop-color="#9f9f9f"/>
      <stop offset=".762" stop-color="#bcbcbc"/>
      <stop offset=".824" stop-color="#e0e0e0"/>
      <stop offset=".973" stop-color="#ededed"/>
    </linearGradient>
    <path fill="url(#P)" d="M195.647 53.838c-4.112-.521-10.887-1.47-13.64-2.388-4.07-1.357-10.035-1.585-14.634-15.995-4.603-14.408-4.901-15.465-4.901-15.465s-.383-2.638-1.669-2.638c-1.272 0-1.651 2.94-1.651 2.94l.018 6.886s.448-4.641 1.633-4.641c.793 0 1.21 1.978 1.401 3.318.094.688.143 1.125.143 1.125s.056.362.167.852c.612 2.717 2.714 11.9 3.674 15.639 1.126 4.415 4.24 8.94 9.273 11.035 5.037 2.094 17.092 2.83 19.24 2.885l.946-3.553z"/>
    <linearGradient id="Q" gradientUnits="userSpaceOnUse" x1="159.775" y1="20.647" x2="161.899" y2="20.647">
      <stop offset="0" stop-color="#d4d4d4"/>
      <stop offset=".527" stop-color="#9e9e9e"/>
      <stop offset=".824" stop-color="#d9d9d9"/>
    </linearGradient>
    <path fill="url(#Q)" d="M159.799 23.911c.25-.77.584-1.373 1.004-1.373.449 0 .772.621 1.001 1.404l.094-5.754c-.254-.466-.605-.836-1.095-.836-.445 0-.782.363-1.029.836l.025 5.723z"/>
    <linearGradient id="R" gradientUnits="userSpaceOnUse" x1="271.283" y1="44.515" x2="264.23" y2="57.641">
      <stop offset="0" stop-color="#d1d1d1"/>
      <stop offset=".621" stop-color="#fff"/>
      <stop offset=".799" stop-color="#d6d6d6"/>
      <stop offset="1" stop-color="#ababab"/>
    </linearGradient>
    <path fill="url(#R)" d="M281.707 49.603c-.306-1.585-.49-2.982-1.248-2.982s-1.099 1.849-1.32 3.021c-.227 1.168-.939 6.147-2.903 7.467-1.964 1.321-5.735 2.299-10.185 2.527s-13.845.603-16.372.603l.758-.942c3.018-.077 7.015-.905 14.634-1.66 7.62-.754 9.354-2.792 10.786-4.829 1.433-2.037 3.243-8.299 3.243-8.299s.452-2.187 1.359-2.187c.904 0 1.206 1.81 1.206 1.81l.042 5.471z"/>
    <linearGradient id="S" gradientUnits="userSpaceOnUse" x1="299.241" y1="55.986" x2="301.128" y2="67.041">
      <stop offset=".066" stop-color="#fff"/>
      <stop offset=".264" stop-color="#8c8c8c"/>
      <stop offset=".308" stop-color="#777"/>
      <stop offset=".407" stop-color="#4d4d4d"/>
      <stop offset=".639" stop-color="#494949"/>
      <stop offset=".687" stop-color="#474747"/>
      <stop offset="1" stop-color="#ebebeb"/>
    </linearGradient>
    <path fill="url(#S)" d="M288.103 58.682c1.62.361 3.323.474 4.575.575 2.339.189 7.209.719 7.209.719s2.718.224 2.718 1.017c0 .792-2.606 1.095-2.606 1.095l8.301.301s3.393-.075 3.393-1.359c0-1.283-3.622-1.355-3.622-1.355l-15.392-2.491s-.682-.048-1.655-.268l-2.921 1.766z"/>
    <linearGradient id="T" gradientUnits="userSpaceOnUse" x1="286.185" y1="62.059" x2="279.396" y2="88.199">
      <stop offset=".06" stop-color="#e0e0e0"/>
      <stop offset=".258" stop-color="#ebebeb"/>
      <stop offset=".267" stop-color="#e4e4e4"/>
      <stop offset=".409" stop-color="#787878"/>
      <stop offset=".472" stop-color="#4d4d4d"/>
      <stop offset=".67" stop-color="#4d4d4d"/>
      <stop offset=".687" stop-color="#4d4d4d"/>
      <stop offset="1" stop-color="#5e5e5e"/>
    </linearGradient>
    <path fill="url(#T)" d="M284.567 65.142c-1.696 1.47-2.256 6.186-2.412 7.093-.149.905-.827 3.921-.827 3.921s-.264 1.474-.827 1.474l-.194 4.826c.83 0 1.358-2.037 1.358-2.037s2.489-8.6 3.396-10.788c.295-.718.691-1.404 1.324-2.03l-1.818-2.459z"/>
    <linearGradient id="U" gradientUnits="userSpaceOnUse" x1="170.894" y1="75.152" x2="159.24" y2="114.643">
      <stop offset="0" stop-color="#bdbdbd"/>
      <stop offset=".225" stop-color="#828282"/>
      <stop offset=".26" stop-color="#777"/>
      <stop offset=".407" stop-color="#4d4d4d"/>
      <stop offset=".48" stop-color="#505050"/>
      <stop offset=".542" stop-color="#5a5a5a"/>
      <stop offset=".6" stop-color="#6c6c6c"/>
      <stop offset=".654" stop-color="#848484"/>
      <stop offset=".687" stop-color="#969696"/>
      <stop offset="1" stop-color="#9c9c9c"/>
    </linearGradient>
    <path fill="url(#U)" d="M160.804 106.22c1.366 0 1.478-3.058 1.478-3.058s2.947-17.992 3.393-20.14c.452-2.15 1.922-9.393 5.089-12.109l3.428 3.657c-3.209 3.099-4.206 6.862-5.006 9.13-1.359 3.848-6.903 25.914-6.903 25.914s-.337 2.941-1.478 2.941v-6.335z"/>
    <linearGradient id="V" gradientUnits="userSpaceOnUse" x1="150.566" y1="79.124" x2="158.034" y2="118.049">
      <stop offset="0" stop-color="#b5b5b5"/>
      <stop offset=".225" stop-color="#6b6b6b"/>
      <stop offset=".407" stop-color="#4d4d4d"/>
      <stop offset=".48" stop-color="#505050"/>
      <stop offset=".542" stop-color="#5a5a5a"/>
      <stop offset=".6" stop-color="#6c6c6c"/>
      <stop offset=".654" stop-color="#848484"/>
      <stop offset=".687" stop-color="#969696"/>
      <stop offset="1" stop-color="#c2c2c2"/>
    </linearGradient>
    <path fill="url(#V)" d="M162.281 103.163s-.111 3.058-1.478 3.058c-1.352 0-1.352-3.058-1.352-3.058s-1.244-6.674-3.167-20.027c-1.929-13.353-8.263-15.051-13.581-16.068l-.792 3.971c1.988.633 3.848 1.474 5.092 2.591 3.282 2.941 6.111 9.278 8.148 18.67a416.02 416.02 0 004.185 17.427s.341 2.828 1.467 2.828c1.141 0 1.478-2.941 1.478-2.941v-6.451z"/>
    <linearGradient id="W" gradientUnits="userSpaceOnUse" x1="159.904" y1="108.736" x2="161.718" y2="108.736">
      <stop offset="0" stop-color="#999"/>
      <stop offset=".451" stop-color="#e6e6e6"/>
      <stop offset=".824" stop-color="#a3a3a3"/>
    </linearGradient>
    <path fill="url(#W)" d="M159.646 111.135c.226.709.594 1.42 1.157 1.42.518 0 .873-.61 1.102-1.276l.045-6.231c-.216.627-.567 1.172-1.147 1.172-.604 0-.945-.623-1.126-1.304l-.031 6.219z"/>
    <linearGradient id="X" gradientUnits="userSpaceOnUse" x1="88.84" y1="59.823" x2="88.84" y2="62.465">
      <stop offset="0" stop-color="#a8a8a8"/>
      <stop offset=".043" stop-color="#b2b2b2"/>
      <stop offset=".258" stop-color="#dcdcdc"/>
      <stop offset=".427" stop-color="#f5f5f5"/>
      <stop offset=".527" stop-color="#fff"/>
      <stop offset=".646" stop-color="#ebebeb"/>
      <stop offset=".888" stop-color="#b8b8b8"/>
      <stop offset="1" stop-color="#9e9e9e"/>
    </linearGradient>
    <path fill="url(#X)" d="M97.103 62.314s-3.852-.341-3.852-1.245c0-.905 3.852-1.02 3.852-1.02l-13.581-.113s-2.944.113-2.944 1.247c0 1.131 2.493 1.131 3.396 1.244l13.129-.113z"/>
    <linearGradient id="Y" gradientUnits="userSpaceOnUse" x1="177.69" y1="79.811" x2="231.789" y2="54.686">
      <stop offset="0" stop-color="#bdbdbd"/>
      <stop offset=".264" stop-color="#6b6b6b"/>
      <stop offset=".407" stop-color="#4d4d4d"/>
      <stop offset=".639" stop-color="#494949"/>
      <stop offset=".687" stop-color="#474747"/>
      <stop offset="1" stop-color="#545454"/>
    </linearGradient>
    <path fill="url(#Y)" d="M173.818 74.943c2.235-2.319 5.628-4.326 10.98-5.16 12.333-1.924 35.306-4.526 35.306-4.526s11.662-1.413 21.048-2.032l.118-1.364c-4.415 0-35.424 2.716-50.135 3.733-14.711 1.019-17.196 2.604-20.373 5.32l3.056 4.029z"/>
    <linearGradient id="Z" gradientUnits="userSpaceOnUse" x1="275.094" y1="67.105" x2="253.066" y2="63.031">
      <stop offset="0" stop-color="#bfbfbf"/>
      <stop offset=".264" stop-color="#737373"/>
      <stop offset=".407" stop-color="#4d4d4d"/>
      <stop offset=".639" stop-color="#494949"/>
      <stop offset=".687" stop-color="#474747"/>
      <stop offset="1" stop-color="#545454"/>
    </linearGradient>
    <path fill="url(#Z)" d="M274.592 67.433c-1.728-1.957-4.244-2.25-5.938-2.517-2.151-.339-10.755-1.47-18.443-1.924-2.614-.153-6.917.057-11.471.403l-.149-1.423c1.227-.073 2.147-.111 2.68-.111 4.407 0 10.978 0 17.085.454 6.11.452 13.24.565 16.521 2.037.751.343 1.352.934 1.832 1.645l-2.117 1.436z"/>
    <linearGradient id="aa" gradientUnits="userSpaceOnUse" x1="275.957" y1="64" x2="280.146" y2="81.785">
      <stop offset="0" stop-color="#d1d1d1"/>
      <stop offset=".242" stop-color="#9c9c9c"/>
      <stop offset=".328" stop-color="#777"/>
      <stop offset=".44" stop-color="#4d4d4d"/>
      <stop offset=".645" stop-color="#494949"/>
      <stop offset=".687" stop-color="#474747"/>
      <stop offset="1" stop-color="#4d4d4d"/>
    </linearGradient>
    <path fill="url(#aa)" d="M274.153 66.988c.65.594 1.214 1.376 1.631 2.417 1.505 3.771 3.166 10.863 3.166 10.863s.528 2.188 1.356 2.188c.83 0 1.358-2.037 1.358-2.037l-.337-4.263s-.264 1.474-.827 1.474c-.57 0-.682-.793-.907-1.474-.233-.678-.646-2.868-.869-3.883-.191-.85-.615-4.817-2.517-6.924l-2.054 1.639z"/>
    <linearGradient id="ab" gradientUnits="userSpaceOnUse" x1="279.325" y1="79.306" x2="281.437" y2="79.306">
      <stop offset="0" stop-color="#4a4a4a"/>
      <stop offset=".103" stop-color="#4d4d4d"/>
      <stop offset=".188" stop-color="#575757"/>
      <stop offset=".267" stop-color="#696969"/>
      <stop offset=".342" stop-color="#818181"/>
      <stop offset=".415" stop-color="#a0a0a0"/>
      <stop offset=".484" stop-color="#c6c6c6"/>
      <stop offset=".505" stop-color="#d4d4d4"/>
      <stop offset=".548" stop-color="#cacaca"/>
      <stop offset=".62" stop-color="#b0b0b0"/>
      <stop offset=".711" stop-color="#868686"/>
      <stop offset=".753" stop-color="#707070"/>
      <stop offset=".94" stop-color="#4f4f4f"/>
    </linearGradient>
    <path fill="url(#ab)" d="M278.95 80.268s.528 2.188 1.356 2.188c.83 0 1.358-2.037 1.358-2.037l-.337-4.263s-.264 1.474-.827 1.474c-.57 0-.682-.793-.907-1.474l-.643 4.112z"/>
    <linearGradient id="ac" gradientUnits="userSpaceOnUse" x1="285.882" y1="66.066" x2="303.948" y2="61.804">
      <stop offset="0" stop-color="#e6e6e6"/>
      <stop offset=".231" stop-color="#737373"/>
      <stop offset=".451" stop-color="#4d4d4d"/>
      <stop offset=".632" stop-color="#474747"/>
      <stop offset=".692" stop-color="#666"/>
      <stop offset=".789" stop-color="#929292"/>
      <stop offset=".876" stop-color="#b2b2b2"/>
      <stop offset=".95" stop-color="#c5c5c5"/>
      <stop offset="1" stop-color="#ccc"/>
    </linearGradient>
    <path fill="url(#ac)" d="M286.014 68.008c.129-.158.271-.309.428-.458 1.304-1.258 3.594-2.27 8.051-2.823 6.715-.831 13.807-2.337 13.807-2.337s3.393-.075 3.393-1.359l-9.087-.036c0 .792-2.606 1.095-2.606 1.095s-2.374.603-6.827.904c-4.449.302-6.903.68-8.604 2.15a2.675 2.675 0 00-.271.28l1.716 2.584z"/>
    <linearGradient id="ad" gradientUnits="userSpaceOnUse" x1="306.558" y1="61.802" x2="306.529" y2="60.26">
      <stop offset="0" stop-color="#c9c9c9"/>
      <stop offset=".246" stop-color="#c6c6c6"/>
      <stop offset=".449" stop-color="#bcbcbc"/>
      <stop offset=".505" stop-color="#b8b8b8"/>
      <stop offset=".554" stop-color="#aeaeae"/>
      <stop offset=".636" stop-color="#949494"/>
      <stop offset=".725" stop-color="#707070"/>
      <stop offset=".94" stop-color="#4f4f4f"/>
    </linearGradient>
    <path fill="url(#ad)" d="M301.381 60.22c.626.156 1.224.401 1.224.773 0 .255-.274.458-.64.619l9.125.212c.354-.193.602-.45.602-.794 0-.747-1.234-1.084-2.26-1.234l-8.051.424z"/>
    <linearGradient id="ae" gradientUnits="userSpaceOnUse" x1="288.249" y1="58.059" x2="282.327" y2="44.215">
      <stop offset="0" stop-color="#fff"/>
      <stop offset=".126" stop-color="#a6a6a6"/>
      <stop offset=".274" stop-color="#777"/>
      <stop offset=".423" stop-color="#4d4d4d"/>
      <stop offset=".731" stop-color="#474747"/>
      <stop offset=".992" stop-color="#515151"/>
      <stop offset="1" stop-color="#525252"/>
    </linearGradient>
    <path fill="url(#ae)" d="M280.459 46.62c.758 0 .942 1.397 1.248 2.982.299 1.583.751 5.619 2.75 7.43 1.063.959 2.651 1.472 4.261 1.772l2.973-1.755c-1.818-.318-5.593-1.338-6.778-4.392-1.585-4.074-3.247-8.526-3.247-8.526s-.302-1.81-1.206-1.81v4.299z"/>
    <linearGradient id="af" gradientUnits="userSpaceOnUse" x1="279.287" y1="44.795" x2="281.288" y2="44.795">
      <stop offset="0" stop-color="#d4d4d4"/>
      <stop offset=".203" stop-color="#d0d0d0"/>
      <stop offset=".37" stop-color="#c6c6c6"/>
      <stop offset=".505" stop-color="#b8b8b8"/>
      <stop offset=".547" stop-color="#aeaeae"/>
      <stop offset=".616" stop-color="#949494"/>
      <stop offset=".704" stop-color="#6a6a6a"/>
      <stop offset=".725" stop-color="#5e5e5e"/>
      <stop offset=".94" stop-color="#4d4d4d"/>
    </linearGradient>
    <path fill="url(#af)" d="M279.813 42.732c.178-.243.396-.41.646-.41.296 0 .528.195.706.457l-.028 4.442c-.163-.375-.372-.601-.678-.601-.285 0-.511.262-.691.648l.045-4.536z"/>
    <linearGradient id="ag" gradientUnits="userSpaceOnUse" x1="190.106" y1="55.26" x2="250.424" y2="59.561">
      <stop offset="0" stop-color="#e8e8e8"/>
      <stop offset=".621" stop-color="#fff"/>
      <stop offset=".799" stop-color="#d6d6d6"/>
      <stop offset="1" stop-color="#ababab"/>
    </linearGradient>
    <path fill="url(#ag)" d="M256.662 58.635c-2.652.355-4.585.619-6.226.661-3.021.076-9.284.076-14.262-.527-4.975-.603-37.19-4.527-37.19-4.527s-1.953-.217-4.581-.563l-.098 3.77c2.148.056 32.289 2.187 37.082 2.414 4.787.228 15.765.375 18.291.375 1.23 0 4.085-.088 7.206-.205l-.222-1.398z"/>
    <linearGradient id="ah" gradientUnits="userSpaceOnUse" x1="295.306" y1="103.656" x2="298.26" y2="103.656">
      <stop offset=".028" stop-color="#4a4a4a"/>
      <stop offset=".089" stop-color="#575757"/>
      <stop offset=".205" stop-color="#7b7b7b"/>
      <stop offset=".357" stop-color="#b2b2b2"/>
      <stop offset=".489" stop-color="#d4d4d4"/>
      <stop offset=".55" stop-color="#c7c7c7"/>
      <stop offset=".662" stop-color="#a5a5a5"/>
      <stop offset=".72" stop-color="#919191"/>
      <stop offset=".874" stop-color="#757575"/>
    </linearGradient>
    <path fill="url(#ah)" d="M295.527 100.413s.236 1.9 1.192 1.9c.949 0 1.063-1.482 1.063-1.482l.477 2.975c-.678 2.114-.827 3.092-1.509 3.092-.364 0-.854-.979-1.445-2.609l.222-3.876z"/>
    <radialGradient id="ai" cx="149.211" cy="52.722" r="107.671" gradientUnits="userSpaceOnUse">
      <stop offset=".071" stop-color="#fff"/>
      <stop offset=".075" stop-color="#fdfdfd"/>
      <stop offset=".144" stop-color="#d5d5d5"/>
      <stop offset=".207" stop-color="#b8b8b8"/>
      <stop offset=".262" stop-color="#a7a7a7"/>
      <stop offset=".302" stop-color="#a1a1a1"/>
      <stop offset=".375" stop-color="#8f8f8f"/>
      <stop offset=".483" stop-color="#7d7d7d"/>
      <stop offset=".595" stop-color="#717171"/>
      <stop offset=".714" stop-color="#6e6e6e"/>
      <stop offset="1" stop-color="#696969"/>
    </radialGradient>
    <path fill="url(#ai)" d="M112.265 58.692L97.103 60.05s-3.852.115-3.852 1.02c0 .904 3.852 1.245 3.852 1.245l20.029 1.696s20.258 2.037 25.573 3.057c5.318 1.017 11.652 2.715 13.581 16.068 1.922 13.353 3.167 20.027 3.167 20.027s0 3.058 1.352 3.058c1.366 0 1.478-3.058 1.478-3.058s2.947-17.992 3.393-20.14c.452-2.15 1.922-9.393 5.089-12.109 3.177-2.717 5.662-4.302 20.373-5.32 14.711-1.017 45.72-3.733 50.135-3.733 4.407 0 10.978 0 17.085.454 6.11.452 13.24.565 16.521 2.037 3.055 1.394 3.618 6.903 3.848 7.922.223 1.015.636 3.205.869 3.883.226.681.337 1.474.907 1.474.563 0 .827-1.474.827-1.474s.678-3.016.827-3.921c.156-.907.716-5.623 2.412-7.093 1.7-1.47 4.154-1.848 8.604-2.15 4.453-.301 6.827-.904 6.827-.904s2.606-.302 2.606-1.095c0-.793-2.718-1.017-2.718-1.017s-4.87-.53-7.209-.719c-2.336-.186-6.219-.414-8.221-2.225-1.999-1.811-2.451-5.847-2.75-7.43-.306-1.585-.49-2.982-1.248-2.982s-1.099 1.849-1.32 3.021c-.227 1.168-.939 6.147-2.903 7.467-1.964 1.321-5.735 2.299-10.185 2.527s-13.845.603-16.372.603c-2.526 0-13.504-.147-18.291-.375-4.793-.228-34.534-2.414-36.686-2.471-2.148-.056-14.203-.791-19.24-2.885-5.033-2.094-8.147-6.62-9.273-11.035-1.137-4.411-3.761-16.48-3.761-16.48s-.598-4.494-1.624-4.453c-1.182.049-1.633 4.641-1.633 4.641s-2.548 14.37-4.814 19.066c-2.259 4.696-8.37 9.335-16.629 10.185-8.261.844-25.464 2.26-25.464 2.26z"/>
    <linearGradient id="aj" gradientUnits="userSpaceOnUse" x1="256.491" y1="77.544" x2="280.933" y2="110.586">
      <stop offset="0" stop-color="#adadad"/>
      <stop offset=".092" stop-color="#999"/>
      <stop offset=".154" stop-color="#919191"/>
      <stop offset=".168" stop-color="#8f8f8f"/>
      <stop offset=".342" stop-color="#7d7d7d"/>
      <stop offset=".522" stop-color="#717171"/>
      <stop offset=".714" stop-color="#6e6e6e"/>
      <stop offset="1" stop-color="#8a8a8a"/>
    </linearGradient>
    <path fill="url(#aj)" d="M267.65 89.747c-2.503.063-16.445 1.304-20.161 1.533-3.706.229-4.999 2.604-5.53 3.678-.532 1.071-2.041 8.504-2.197 9.118-.152.61-.382 1.837-.758 1.837-.379 0-.608-.766-.758-1.378-.152-.612-1.665-7.203-2.124-9.04-.451-1.839-2.04-2.76-3.865-3.603-1.814-.844-6.36-1.07-6.36-1.07s-3.713-.382-6.518-.537c-2.806-.155-4.241-.69-4.241-1.458 0-.763 1.888-.688 4.164-.996 7.352-.229 9.549-.614 13.49-1.837 3.598-1.123 4.165-6.207 4.547-8.045.376-1.837.831-3.909 1.516-3.909.682 0 .907.691 1.362 3.45.838 5.362 2.121 7.507 4.551 8.504 4.244 1.455 17.658 1.837 20.23 1.915 0 0 7.994.13 12.138-.096 4.154-.228 11.475-.98 13.129-1.355 1.658-.38 3.998-1.286 4.453-4.001.452-2.715 1.13-5.81 1.961-5.81.827 0 1.282 2.339 1.432 2.942 0 0 .629 5.216 3.591 6.287 2.969 1.067 7.477 1.423 9.319 1.542 1.842.118 3.438.476 3.438 1.305 0 .833-2.37 1.364-3.379 1.364-1.004 0-6.229.179-8.071 1.01-1.839.833-3.444 1.425-4.153 4.986-.713 3.561-1.071 4.749-1.071 4.749s-.114 1.482-1.063 1.482c-.956 0-1.192-1.9-1.192-1.9s-1.126-5.579-1.895-6.825c-.771-1.246-1.664-3.027-8.964-3.262-7.306-.241-10.538-.744-17.021-.58z"/>
    <linearGradient id="ak" gradientUnits="userSpaceOnUse" x1="255.618" y1="139.101" x2="243.094" y2="129.745">
      <stop offset="0" stop-color="#e6e6e6"/>
      <stop offset=".244" stop-color="#c6c6c6"/>
      <stop offset=".564" stop-color="#a4a4a4"/>
      <stop offset=".827" stop-color="#8f8f8f"/>
      <stop offset="1" stop-color="#878787"/>
    </linearGradient>
    <path fill="url(#ak)" d="M183.742 118.744s4.529.224 6.34 1.055c1.808.829 3.393 1.735 3.845 3.546.452 1.809 1.964 8.297 2.113 8.9.149.604.379 1.361.755 1.361.375 0 .602-1.208.754-1.811.153-.603 1.658-7.922 2.19-8.977.528-1.059 1.811-3.394 5.506-3.622 3.694-.226 17.578-1.436 20.067-1.508 2.488-.075 16.977.377 20.445.678s8.37.603 9.504 3.319c1.133 2.717 1.432 5.279 1.734 6.262.299.982.528 1.736 1.21 1.736.678 0 .979-1.208 1.129-1.886.149-.68.98-7.999 4.905-8.754 3.924-.752 10.031-1.279 11.391-1.355 1.359-.075 2.485-.151 2.485-1.133 0-.98-1.734-.98-2.867-.98-1.127 0-8.443-.377-11.314-1.508-2.864-1.13-3.922-3.094-4.6-7.394-.229-1.283-.754-2.414-1.358-2.414-.602 0-1.13 1.434-1.359 2.491-.223 1.055-.146 4.751-2.562 6.335-2.413 1.585-4.981 2.113-13.355 2.567-8.37.452-15.465.299-18.026.226-2.569-.077-15.92-.454-20.144-1.888-2.416-.979-3.698-3.09-4.529-8.374-.452-2.715-.678-3.395-1.355-3.395-.682 0-1.134 2.037-1.513 3.848-.375 1.811-.938 6.818-4.521 7.92-3.925 1.208-6.111 1.585-13.429 1.811-2.263.302-4.153.228-4.153.982s1.436 1.281 4.227 1.434c2.79.149 6.485.528 6.485.528z"/>
    <linearGradient id="al" gradientUnits="userSpaceOnUse" x1="318.123" y1="87.831" x2="318.123" y2="89.643">
      <stop offset="0" stop-color="#c2c2c2"/>
      <stop offset=".126" stop-color="#bababa"/>
      <stop offset=".322" stop-color="#a4a4a4"/>
      <stop offset=".451" stop-color="#919191"/>
      <stop offset=".715" stop-color="#b1b1b1"/>
      <stop offset=".824" stop-color="#bfbfbf"/>
    </linearGradient>
    <path fill="url(#al)" d="M314.114 88.129c.226.165.344.36.344.593 0 .351-.421.65-.99.879l6.896.325c1.171-.228 2.415-.579 2.415-1.057 0-.659-.553-.994-2.12-1.306l-6.545.566z"/>
  </g>
</svg>